<svg xmlns="http://www.w3.org/2000/svg" xmlns:xlink="http://www.w3.org/1999/xlink" viewBox="3402.474 2170.208 645.108 555.763"><defs><style>.cls-1{fill:#ff8d00}</style><linearGradient id="linear-gradient" x1="-1.471" y1=".435" x2="-1.103" y2=".435" gradientUnits="objectBoundingBox"><stop offset="0" stop-color="#414042"/><stop offset=".252" stop-color="#252526"/><stop offset=".509" stop-color="#111011"/><stop offset=".761" stop-color="#040404"/><stop offset="1"/></linearGradient><linearGradient id="linear-gradient-2" x1="-.402" y1=".496" x2="-.165" y2=".496" xlink:href="#linear-gradient"/><linearGradient id="linear-gradient-3" x1="-.002" y1=".521" x2=".437" y2=".521" xlink:href="#linear-gradient"/><linearGradient id="linear-gradient-4" x1=".649" y1=".602" x2=".95" y2=".602" xlink:href="#linear-gradient"/><linearGradient id="linear-gradient-5" x1="1.234" y1=".713" x2="1.616" y2=".713" xlink:href="#linear-gradient"/><linearGradient id="linear-gradient-6" x1="-1.707" y1=".426" x2="-1.343" y2=".426" gradientUnits="objectBoundingBox"><stop offset="0"/><stop offset=".088" stop-color="#151515"/><stop offset=".302" stop-color="#424244"/><stop offset=".507" stop-color="#656668"/><stop offset=".697" stop-color="#7e8083"/><stop offset=".867" stop-color="#8e9092"/><stop offset="1" stop-color="#939598"/></linearGradient><linearGradient id="linear-gradient-7" x1="-.389" y1=".498" x2="-.158" y2=".498" xlink:href="#linear-gradient-6"/><linearGradient id="linear-gradient-8" x1=".175" y1="-.016" x2=".175" y2="1.057" xlink:href="#linear-gradient-6"/><linearGradient id="linear-gradient-9" x1=".645" y1=".602" x2=".901" y2=".602" xlink:href="#linear-gradient-6"/><linearGradient id="linear-gradient-10" x1="1.238" y1=".712" x2="1.575" y2=".712" xlink:href="#linear-gradient-6"/><linearGradient id="linear-gradient-11" x1="-1.452" y1=".435" x2="-.957" y2=".435" gradientUnits="objectBoundingBox"><stop offset="0" stop-color="#d1d3d4"/><stop offset=".556" stop-color="#e0e2e3"/><stop offset="1" stop-color="#e6e7e8"/></linearGradient><linearGradient id="linear-gradient-12" x1="-.296" y1=".498" x2=".037" y2=".498" xlink:href="#linear-gradient-11"/><linearGradient id="linear-gradient-13" x1=".199" y1=".533" x2=".566" y2=".533" xlink:href="#linear-gradient-11"/><linearGradient id="linear-gradient-14" x1=".68" y1=".609" x2="1.091" y2=".609" xlink:href="#linear-gradient-11"/><linearGradient id="linear-gradient-15" x1="1.221" y1=".729" x2="1.682" y2=".729" xlink:href="#linear-gradient-11"/></defs><g id="_375" data-name="375" transform="rotate(135.97 2184.758 2090.878)"><g id="XMLID_5_" transform="translate(1083.5 510.9)"><path id="XMLID_70_" class="cls-1" d="M349.4 364.017c1.819 13.339 4 26.435 6.669 39.289-6.063 6.063-12 12.369-17.947 18.8-2.183 13.945-4 27.89-5.336 41.835-4 13.339-7.64 26.8-10.792 40.259a580.01 580.01 0 0 0-3.638 45.716 602.992 602.992 0 0 0-9.458 46.807c5.093-8.61 10.307-17.1 15.643-25.223q4.366-28.012 11.277-55.3 1.637-9.095 3.638-18.189c.364-10.792 1.091-21.706 2.061-32.62 5.214-7.518 10.429-14.794 15.885-21.948 4.729-6.427 9.458-12.733 14.43-19.038 2.789-5.214 5.7-10.429 8.731-15.522-3.4-8.488-6.548-17.219-9.58-25.95q7.458-11.459 15.279-22.555a595.024 595.024 0 0 1 15.4-19.4c-2.425-6.427-4.851-12.854-7.033-19.4 5.578-5.214 11.277-10.307 17.1-15.158a403.521 403.521 0 0 1 10.671-18.311c-4.244-4.244-8.367-8.488-12.611-12.854 7.518-4 15.037-7.882 22.555-11.52-2.425-3.032-4.729-6.184-7.033-9.216 1.455-3.759 3.032-7.518 4.608-11.277 8.125-3.638 16.37-7.154 24.616-10.429 0-7.154.243-14.43.485-21.585 1.7-9.216 3.638-18.311 5.821-27.527a649.731 649.731 0 0 0-22.8 39.41c-7.033 2.789-14.066 5.578-21.1 8.61-3.153 10.065-6.063 20.251-8.731 30.316q-7.276 8.731-14.188 17.826c-6.791 9.7-13.46 19.645-19.766 29.709 1.94 8.488 4 16.856 6.306 25.223-10.788 9.214-21.096 19.036-31.162 29.222z" transform="translate(-33.149 -72.381)"/><path id="XMLID_72_" class="cls-1" d="M280.359 388.465c2.425 11.035 4.972 21.948 7.882 32.741-3.517 14.066-6.548 28.254-9.216 42.321q-6.912 27.284-11.641 54.932c-8.246 11.762-16.249 24.01-23.889 36.5-1.819 19.4-3.032 38.925-3.4 58.57 2.668-9.216 5.457-18.189 8.488-27.163 2.789-3.88 5.7-7.64 8.61-11.277 5.457-15.643 11.52-31.043 17.947-46.08a680.58 680.58 0 0 1 27.769-22.433c5.578-13.945 11.52-27.527 17.826-40.987a594.831 594.831 0 0 1-9.337-32.862c1.091-4.85 2.3-9.7 3.517-14.551a461.155 461.155 0 0 1-3.638-18.674c4.244-9.7 8.61-19.4 13.218-28.86 5.7-1.94 11.277-3.759 16.977-5.457 3.759-8.731 7.761-17.462 11.884-26.071a669.66 669.66 0 0 1 .364-31.164c10.671-8 21.463-15.522 32.377-22.8.364-8.973.849-18.068 1.576-27.042 3.759-8.731 7.761-17.462 11.884-26.193 7.033-3.638 14.066-7.154 21.221-10.429 2.668-4.729 5.336-9.58 8.125-14.309q7.821-18.189 16.734-36.015c2.3-14.066 4.972-28.254 8.125-42.563q-16.734 27.648-30.8 55.781c-13.218 10.792-26.071 22.07-38.683 33.832-8.488 13.218-16.613 26.678-24.252 40.259-9.337 12.247-18.311 24.738-27.042 37.47-8 15.643-15.4 31.528-22.312 47.535-10.427 14.431-20.613 29.468-30.314 44.989z" transform="translate(-47.778 -84.097)"/><path id="XMLID_81_" class="cls-1" d="M123.266 299.82l3.274 13.46c-1.334 4.365-2.547 8.731-3.759 13.218-1.576 4.487-3.274 9.095-4.729 13.581-.364 4.608-.606 9.216-.849 13.824a322.048 322.048 0 0 0-5.457 15.158 437.292 437.292 0 0 0-6.184 17.7c-2.3 5.942-4.608 11.884-6.791 17.947-2.789 4.608-5.578 9.337-8.367 14.066-.849 5.093-1.576 10.186-2.3 15.158.606 5.214 1.213 10.307 1.94 15.522-.606 5.093-1.091 10.186-1.576 15.279a437.77 437.77 0 0 0 6.791 12.975c-.121 5.821-.243 11.52-.121 17.34v1.334c.97-6.548 1.94-12.975 3.153-19.4.97-5.214 2.061-10.429 3.153-15.643 1.455-5.093 3.032-10.186 4.608-15.279-1.213-5.7-2.3-11.4-3.4-17.219 1.091-5.214 2.3-10.429 3.517-15.643 1.94-5.093 3.88-10.065 5.942-15.037 3.517-4.729 7.154-9.458 10.914-14.066 1.455-5.578 3.032-11.156 4.608-16.734 2.91-4.972 5.821-9.822 8.731-14.673 2.061-5.336 4.123-10.671 6.306-15.885 2.425-4.972 5.093-9.944 7.64-14.915 1.576-8 3.4-16.007 5.336-23.889 5.093-3.759 10.186-7.276 15.4-10.792 4.123-4.487 8.367-8.852 12.611-13.1 1.213-6.306 2.668-12.733 4.123-19.038 2.668-6.306 5.457-12.49 8.367-18.8 4.123-.849 8.246-1.576 12.369-2.3 3.153-2.3 6.427-4.608 9.58-6.791 3.274-4.123 6.548-8.246 9.943-12.247 3.638-4.244 7.276-8.367 10.914-12.49 3.88-6.184 7.761-12.369 11.884-18.553 4.487-1.94 8.973-3.88 13.581-5.7 2.547-3.517 5.214-7.033 7.882-10.55 3.274-5.7 6.791-11.4 10.307-17.1 3.88-2.3 7.882-4.487 11.884-6.669 4-2.547 7.882-5.093 11.884-7.518 5.093-3.274 10.186-6.427 15.4-9.458-5.821.364-11.641.728-17.462 1.334l-12.733 2.91a729.472 729.472 0 0 0-21.948 2.91c-.728 4.123-1.334 8.246-1.94 12.369 0 5.821.121 11.641.243 17.341-4.608-.121-9.337-.121-14.066-.121-1.819.849-3.638 1.7-5.578 2.547a830.668 830.668 0 0 0-12.611 16.249c-4.244-.97-8.488-1.819-12.733-2.668-3.032 6.306-5.942 12.611-8.61 18.917-4 6.912-7.882 13.824-11.641 20.857-6.791 1.455-13.7 2.91-20.615 4.608-3.88 1.94-7.761 3.88-11.641 5.942-1.94 4.244-3.759 8.488-5.578 12.854.728 5.214 1.455 10.429 2.183 15.522-1.7 4.729-3.4 9.58-5.093 14.309a310.126 310.126 0 0 0-14.794 2.183c-4 3.032-7.882 6.184-11.884 9.337-4.49 5.22-8.249 10.313-12.008 15.527z" transform="translate(-80.097 -84.458)"/><path id="XMLID_78_" class="cls-1" d="M147.472 400.852c.728 5.214 1.576 10.55 2.425 15.643a576.198 576.198 0 0 0-7.4 14.915 414.532 414.532 0 0 0 1.819 17.7c2.061 5.457 4.123 11.035 6.184 16.37.364 5.578.728 11.156 1.213 16.734a370.636 370.636 0 0 0-3.274 16.613c.364 5.457.728 10.914 1.213 16.249 2.425 4.365 4.972 8.61 7.518 12.854l-1.091 13.46c.728 4 1.455 7.882 2.3 11.884.121-.364.364-.849.485-1.213 1.94-5.093 4-10.186 6.063-15.158a420.156 420.156 0 0 1 4.729-17.7q1.273-9.277 2.91-18.553c-3.4-4.244-6.791-8.488-10.065-12.733-.364-4.972-.606-9.944-.849-14.794.728-4.729 1.455-9.337 2.183-14.066 2.061-5.457 4.244-10.914 6.427-16.37q2.91-8.913 6.184-17.826c2.668-5.578 5.457-11.156 8.246-16.613l1.819-14.188c3.032-3.88 6.063-7.882 9.095-11.762 1.576-4.365 3.274-8.61 4.85-12.975 3.88-3.4 7.882-6.791 11.762-10.065a410.95 410.95 0 0 1 9.7-10.792c1.455-4.85 3.032-9.822 4.487-14.673 1.576-5.336 3.153-10.671 4.85-16.007 3.517-4.729 7.154-9.337 10.792-13.824 2.547-4.608 5.093-9.337 7.761-13.945 2.425-4.85 4.972-9.7 7.518-14.551 1.455-5.457 2.91-10.914 4.365-16.492 2.547-4.123 5.214-8.125 7.882-12.126 1.576-4.608 3.153-9.337 4.85-13.945 2.425-4.365 4.972-8.61 7.518-12.975 3.4-3.88 6.791-7.64 10.186-11.4l14.188-6.548c2.061-4.487 4.123-9.095 6.306-13.581 3.153-4.123 6.184-8.125 9.458-12.126 3.759-4.123 7.64-8.125 11.52-12 2.425-4.608 4.972-9.095 7.518-13.7 3.88-2.547 7.761-4.972 11.641-7.518 3.274-3.517 6.548-7.033 9.944-10.429 3.638-3.032 7.4-5.942 11.156-8.852l9.095-8.367c-4.244 1.091-8.61 2.183-12.854 3.274a332.185 332.185 0 0 0-15.036 3.274c-4.85 1.576-9.7 3.153-14.552 4.85-4.487 3.032-8.852 5.942-13.218 9.095-5.457.728-11.035 1.576-16.492 2.425-2.425 5.578-4.729 11.277-7.033 16.977-3.032 7.4-5.942 14.673-8.61 22.07-2.91 3.517-5.942 6.912-8.731 10.55a389.796 389.796 0 0 0-11.4 8.125 391.633 391.633 0 0 0-7.518 11.884l-12.369 4q-1.637 9.458-2.91 18.917a464.18 464.18 0 0 0-7.276 18.068c-4.244 2.91-8.488 5.821-12.733 8.852-4.244 2.91-8.488 5.821-12.733 8.852-1.213 4.85-2.547 9.58-3.638 14.43-2.183 4-4.244 8.125-6.427 12.247l1.455 15.279c-1.819 5.093-3.517 10.186-5.214 15.279a805.567 805.567 0 0 0-5.336 15.764c-5.821 3.153-11.641 6.306-17.34 9.7l-7.64 13.1c-4.365 3.638-8.61 7.4-12.975 11.156-4.729 3.517-9.458 7.154-14.066 10.914-.593 5.57-.714 11.027-.835 16.363z" transform="translate(-68.53 -86.903)"/><path id="XMLID_76_" class="cls-1" d="M228.409 386.082q-15.643 25.1-29.709 51.537c2.91 17.462 6.184 34.56 10.186 51.536-2.061 9.822-4 19.766-5.7 29.588a793.599 793.599 0 0 0 8 64.148c6.669 9.58 13.339 18.8 20.372 27.89-2.183-9.095-4.123-18.189-5.942-27.405-3.274-15.643-6.063-31.649-8.367-47.656a771.42 771.42 0 0 1 13.1-41.229c-6.791-13.1-13.339-26.556-19.4-40.38 5.942-6.548 12-12.854 18.068-19.159q16.734-29.285 35.651-56.508c-.485.121.243-51.9 3.032-50.809 2.183.97 22.8-21.585 22.919-21.463q15.461-18.007 31.649-34.924c2.425-8.125 4.851-16.249 7.518-24.374 6.791-16.007 14.188-31.892 22.07-47.656 11.277-9.458 22.8-18.553 34.56-27.405 6.548-4.244 13.218-8.367 19.887-12.369q14.006-34.014 31.649-67.543c-14.43 10.429-28.618 21.221-42.442 32.62-6.306 10.792-12.369 21.585-18.189 32.5Q355.674 173.934 335 192.426c-7.4 9.095-14.673 18.311-21.706 27.648-8.731 13.218-16.977 26.556-24.98 40.138q-21.463 21.282-41.714 44.625a814.084 814.084 0 0 0-18.191 81.245z" transform="translate(-56.581 -91.9)"/><path id="XMLID_65_" d="M387.093 323.03l-.606 20.493-24.374 40.259 6.791 21.585-9.095 25.708-21.585 27.525-5.336 28.86 1.94 18.189-10.428 21.83L321 571.5l-12 25.22c5.093-8.61 10.307-17.1 15.643-25.223q4.365-28.012 11.277-55.3 1.637-9.095 3.638-18.189c.364-10.792 1.091-21.706 2.061-32.62 5.214-7.518 10.429-14.794 15.885-21.948 4.729-6.427 9.458-12.733 14.43-19.038 2.789-5.214 5.7-10.429 8.731-15.522-3.4-8.488-6.548-17.219-9.58-25.95q7.458-11.459 15.279-22.555a595.024 595.024 0 0 1 15.4-19.4c-2.425-6.427-4.851-12.854-7.033-19.4 5.578-5.214 11.277-10.307 17.1-15.158a403.521 403.521 0 0 1 10.671-18.311c-4.244-4.244-8.367-8.488-12.611-12.854 7.518-4 15.036-7.882 22.555-11.52-2.425-3.032-4.729-6.184-7.033-9.216 1.455-3.759 3.032-7.518 4.608-11.277 8.125-3.638 16.37-7.154 24.616-10.429 0-7.154.242-14.43.485-21.585 1.7-9.216 3.638-18.311 5.82-27.527l-16.249 40.138-.728 9.58-16.37 3.88-7.033 14.673-1.455 12-14.915 12.005 4 15.279-5.7 17.1z" transform="translate(-33.128 -72.381)" fill="url(#linear-gradient)"/><path id="XMLID_64_" d="M334.894 353.663l-21.464 14.794-13.7 28.739 6.063 20.978-7.64 16.128 10.186 35.287-15.279 27.405-.121 8.367-23.769 17.948-12 29.588-10.07 33.468c2.789-3.88 5.7-7.639 8.61-11.277 5.457-15.643 11.52-31.043 17.947-46.08a681.457 681.457 0 0 1 27.769-22.434c5.578-13.945 11.52-27.527 17.826-40.987a594.831 594.831 0 0 1-9.337-32.862c1.091-4.85 2.3-9.7 3.517-14.551a462.891 462.891 0 0 1-3.638-18.674c4.244-9.7 8.61-19.4 13.218-28.86 5.7-1.94 11.277-3.759 16.977-5.457 3.759-8.731 7.761-17.462 11.884-26.071a669.66 669.66 0 0 1 .364-31.164c10.671-8 21.463-15.522 32.377-22.8.364-8.973.849-18.068 1.576-27.042 3.759-8.731 7.761-17.462 11.884-26.193 7.033-3.638 14.066-7.154 21.221-10.429 2.668-4.729 5.336-9.58 8.125-14.309q7.821-18.189 16.734-36.015c2.3-14.066 4.972-28.254 8.125-42.563l-14.43 36.379-.243 10.792-17.462 28.375-1.819 12.126-27.648 11.156-13.7 22.8 2.91 23.646-35.535 29.829-3.4 27.769z" transform="translate(-46.29 -84.097)" fill="url(#linear-gradient-2)"/><path id="XMLID_63_" d="M226.021 413.73L204.8 447.441l3.517 23.282 10.792 26.314-5.578 17.1-.606 17.826-2.3 26.678 19.766 52.143c-2.183-9.095-4.123-18.189-5.942-27.405-3.274-15.643-6.063-31.649-8.367-47.656a771.42 771.42 0 0 1 13.1-41.229c-6.791-13.1-13.339-26.556-19.4-40.38 5.942-6.548 12-12.854 18.068-19.159q16.734-29.285 35.651-56.508c-.485.121.243-51.9 3.032-50.809 2.183.97 22.8-21.585 22.919-21.463q15.461-18.007 31.649-34.924c2.425-8.125 4.851-16.249 7.518-24.374 6.791-16.007 14.188-31.892 22.07-47.656 11.277-9.458 22.8-18.553 34.56-27.405 6.548-4.244 13.218-8.367 19.887-12.369q14.006-34.014 31.649-67.543l-35.409 43.776-1.7 18.674-57.115 42.442-27.291 57.111-22.07 27.647-36.257 37.346-2.668 29.346-2.547 32.135z" transform="translate(-55.284 -91.9)" fill="url(#linear-gradient-3)"/><path id="XMLID_62_" d="M176.867 388.319l-18.432 33.347-5.335 40.866 1.091 28.739 7.033 12.611-2.182 14.918 1.334 11.277-3.88 22.191c1.94-5.093 4-10.186 6.063-15.158a420.156 420.156 0 0 1 4.729-17.7q1.273-9.277 2.91-18.553c-3.4-4.244-6.791-8.488-10.065-12.733-.364-4.972-.606-9.944-.849-14.794.728-4.729 1.455-9.337 2.183-14.066 2.061-5.457 4.244-10.914 6.427-16.37q2.91-8.913 6.184-17.826c2.668-5.578 5.457-11.156 8.246-16.613l1.819-14.188c3.032-3.88 6.063-7.882 9.095-11.762 1.576-4.365 3.274-8.61 4.85-12.975 3.88-3.4 7.882-6.791 11.762-10.065a410.95 410.95 0 0 1 9.7-10.792c1.455-4.85 3.032-9.822 4.487-14.673 1.576-5.336 3.153-10.671 4.85-16.007 3.517-4.729 7.154-9.337 10.792-13.824 2.547-4.608 5.093-9.337 7.761-13.945 2.425-4.851 4.972-9.7 7.518-14.552 1.455-5.457 2.91-10.914 4.365-16.492 2.546-4.123 5.214-8.125 7.882-12.126 1.576-4.608 3.153-9.337 4.85-13.945 2.425-4.365 4.972-8.61 7.518-12.975 3.4-3.88 6.791-7.64 10.186-11.4l14.188-6.548c2.061-4.487 4.123-9.095 6.306-13.581 3.153-4.123 6.184-8.125 9.458-12.126 3.759-4.123 7.64-8.125 11.52-12 2.425-4.608 4.972-9.095 7.518-13.7 3.88-2.547 7.761-4.972 11.641-7.518 3.274-3.517 6.548-7.033 9.944-10.429 3.638-3.032 7.4-5.942 11.156-8.852l9.095-8.367-38.44 21.706-2.425 4.972-14.066 7.64-2.061 11.277-15.156 13.932-6.669 17.583-11.884 11.52-12.975 2.183-19.644 31.407-2.91 23.161-25.1 32.135-14.796 37.471-17.219 24.253-15.764 18.674z" transform="translate(-66.276 -86.861)" fill="url(#linear-gradient-4)"/><path id="XMLID_61_" d="M140.122 314.957L134.3 335.45l-14.794 27.042-.606 15.522-14.066 20.615-4.972 16.734-5.457 16.977 3.4 15.037-4 49.111c.97-6.548 1.94-12.975 3.153-19.4.97-5.214 2.061-10.429 3.153-15.643 1.455-5.093 3.032-10.186 4.608-15.279-1.213-5.7-2.3-11.4-3.4-17.219 1.091-5.214 2.3-10.429 3.517-15.643 1.94-5.093 3.88-10.065 5.942-15.037 3.517-4.729 7.154-9.458 10.914-14.066 1.455-5.578 3.032-11.156 4.608-16.734 2.91-4.972 5.821-9.822 8.731-14.673 2.061-5.336 4.123-10.671 6.306-15.885 2.425-4.972 5.093-9.944 7.64-14.915 1.576-8 3.4-16.007 5.336-23.889 5.093-3.759 10.186-7.276 15.4-10.792 4.123-4.487 8.367-8.852 12.611-13.1 1.213-6.306 2.668-12.733 4.123-19.038 2.668-6.306 5.457-12.49 8.367-18.8 4.123-.849 8.246-1.576 12.369-2.3 3.153-2.3 6.427-4.608 9.58-6.791 3.274-4.123 6.548-8.246 9.943-12.248 3.638-4.244 7.276-8.367 10.914-12.49 3.88-6.184 7.761-12.369 11.884-18.553 4.487-1.94 8.973-3.88 13.581-5.7 2.546-3.517 5.214-7.033 7.882-10.55 3.274-5.7 6.791-11.4 10.307-17.1 3.88-2.3 7.882-4.487 11.884-6.669 4-2.547 7.882-5.093 11.884-7.518 5.093-3.274 10.186-6.427 15.4-9.458l-24.01 7.64-9.822 10.186H276.3l-4.972 12.611-1.7 6.791-13.218 11.035-10.671 2.061-10.183 15.278-8.856 14.312-11.035 4.123-3.028 12.365-21.949 9.822-16.249 25.95-2.91 12.733-9.7 16.249-18.068 7.4z" transform="translate(-78.885 -84.437)" fill="url(#linear-gradient-5)"/><path id="XMLID_75_" d="M391.79 321.739c2.3 6.548 4.608 12.975 7.033 19.4a602.367 602.367 0 0 0-15.4 19.4q-7.821 11.1-15.279 22.555c3.031 8.852 6.184 17.462 9.58 25.95-2.91 5.093-5.821 10.307-8.731 15.522-4.851 6.184-9.7 12.49-14.43 19.038-5.457 7.154-10.671 14.43-15.885 21.948-.97 10.914-1.7 21.827-2.061 32.62q-2 9.095-3.638 18.189-6.912 27.284-11.277 55.3l12.975-27.284 4.85-30.194 8.852-47.171 30.557-35.412 8.973-18.8-10.309-23.4 26.557-41.35 3.274-28.618 19.644-19.4-2.789-23.04 15.885-11.277-8-10.914 13.339-7.761 13.824-14.551 2.3-26.556-4.12-22.433a587.137 587.137 0 0 0-5.821 27.527c-.364 7.276-.485 14.43-.485 21.585-8.246 3.274-16.37 6.669-24.616 10.429-1.576 3.759-3.153 7.518-4.608 11.277 2.3 3.153 4.729 6.184 7.033 9.216-7.518 3.638-15.037 7.518-22.555 11.52 4.244 4.244 8.367 8.61 12.611 12.854a902.122 902.122 0 0 0-10.671 18.311c-5.335 5.334-11.034 10.306-16.612 15.52z" transform="translate(-30.428 -72.424)" fill="url(#linear-gradient-6)"/><path id="XMLID_73_" d="M324.4 370.582c-4.608 9.58-9.095 19.159-13.218 28.86 1.091 6.306 2.3 12.49 3.638 18.674-1.213 4.85-2.425 9.7-3.517 14.551 2.91 11.156 5.942 22.07 9.337 32.862-6.306 13.339-12.248 27.041-17.826 40.987a680.608 680.608 0 0 0-27.769 22.434c-6.427 15.036-12.369 30.316-17.947 46.08-2.91 3.759-5.7 7.518-8.61 11.277-2.91 8.973-5.821 18.068-8.488 27.163l26.92-44.018 17.826-36.257 23.04-20.615 17.947-31.043-3.4-33.59-.242-26.193.121-27.769 10.792-13.339 15.764-11.884L360.9 336.75l4-22.8 11.884-7.761L391.7 285.82l3.4-19.523 12.49-28.375 24.01-19.281 22.07-34.681-1.819-18.189 4.244-23.04L453.3 128.3c-3.153 14.309-5.942 28.5-8.125 42.563q-8.913 18.007-16.734 36.015a545.501 545.501 0 0 0-8.125 14.309c-7.154 3.4-14.188 6.791-21.221 10.429-4.123 8.731-8.125 17.341-11.884 26.193-.728 9.095-1.213 18.068-1.576 27.042-10.914 7.276-21.706 14.915-32.377 22.8a669.676 669.676 0 0 0-.364 31.164c-4.123 8.61-8.125 17.34-11.884 26.071-5.334 1.937-11.033 3.756-16.61 5.696z" transform="translate(-47.799 -84.16)" fill="url(#linear-gradient-7)"/><path id="XMLID_68_" d="M226.768 435.03a684.463 684.463 0 0 0-18.068 19.159c6.184 13.7 12.611 27.163 19.4 40.38a779.686 779.686 0 0 0-13.1 41.229q3.456 24.192 8.367 47.656c1.819 9.216 3.759 18.432 5.942 27.405l-5.093-77.85 13.7-43.412-12.611-38.683 18.432-27.769 27.769-43.291 7.761-46.929 41.957-47.535 38.2-84.52 23.525-11.156 28.739-17.341L435.461 92.1q-17.644 33.468-31.649 67.543c-6.669 4-13.218 8.125-19.887 12.369-11.641 8.731-23.161 17.826-34.56 27.405-7.882 15.764-15.279 31.649-22.07 47.656-2.668 8.125-5.214 16.249-7.518 24.374q-16.188 16.916-31.649 34.924c-.121-.121-20.736 22.555-22.919 21.463-2.789-1.091-3.517 51.051-3.032 50.809-12.248 18.068-24.253 36.864-35.409 56.387z" transform="translate(-54.454 -91.857)" fill="url(#linear-gradient-8)"/><path id="XMLID_69_" d="M181.714 408.164c-2.789 5.457-5.578 11.035-8.246 16.613-2.183 5.942-4.123 11.884-6.184 17.826-2.183 5.457-4.365 10.914-6.427 16.37-.728 4.729-1.576 9.337-2.183 14.066.243 4.972.485 9.944.849 14.794 3.274 4.244 6.669 8.488 10.065 12.733q-1.637 9.277-2.91 18.553c-1.576 5.942-3.153 11.762-4.729 17.7-2.061 4.972-4 10.065-6.063 15.158-.121.364-.364.849-.485 1.213 0 0 14.066-23.646 15.4-23.525s6.306-34.681 6.306-34.681l-7.276-25.344 4.123-25.586 14.309-28.5 3.032-21.827 15.643-23.282 16.734-15.764 14.551-41.593 11.762-17.219 15.643-32.741 16.613-30.194 13.824-14.915 21.827-17.462.97-15.4 19.038-19.518 29.952-31.286 12.126-18.553-9.095 8.367c-3.759 2.91-7.4 5.821-11.156 8.852-3.274 3.4-6.669 6.912-9.944 10.429-3.88 2.425-7.761 4.972-11.641 7.518-2.547 4.608-5.093 9.095-7.518 13.7-3.88 4-7.761 8-11.52 12-3.153 4-6.306 8.125-9.458 12.126-2.183 4.487-4.244 8.973-6.306 13.581q-7.094 3.092-14.188 6.548c-3.4 3.759-6.791 7.518-10.186 11.4-2.547 4.244-4.972 8.61-7.518 12.975-1.7 4.608-3.274 9.337-4.85 13.945-2.668 4-5.336 8-7.882 12.126a364.936 364.936 0 0 0-4.365 16.492c-2.547 4.85-5.093 9.7-7.518 14.551a515.907 515.907 0 0 0-7.761 13.945c-3.638 4.608-7.276 9.216-10.792 13.824-1.7 5.336-3.274 10.671-4.85 16.007-1.576 4.85-3.032 9.7-4.487 14.673-3.274 3.517-6.427 7.154-9.7 10.792-4 3.274-7.882 6.669-11.762 10.065-1.7 4.244-3.274 8.61-4.85 12.975-3.032 3.88-6.063 7.761-9.095 11.762-.609 4.252-1.216 8.981-1.822 13.711z" transform="translate(-65.787 -86.818)" fill="url(#linear-gradient-9)"/><path id="XMLID_60_" d="M121.59 384.176c-3.638 4.608-7.276 9.337-10.914 14.066-2.061 4.972-4 9.944-5.942 15.037-1.213 5.214-2.425 10.429-3.517 15.643 1.091 5.7 2.183 11.52 3.4 17.219-1.576 5.093-3.153 10.186-4.608 15.279-1.091 5.214-2.183 10.429-3.153 15.643-1.091 6.427-2.183 12.975-3.153 19.4.243 2.3 6.063-14.066 6.063-14.066l14.794-39.9-4.608-19.159L119.408 402l9.822-17.583 4.85-21.342 14.066-17.7 6.669-19.038 6.427-20.251 9.458-7.154 23.163-29.232 4.972-23.767 11.52-1.213 16.007-18.8 13.218-14.551 13.218-20.13 20.002-10.177 11.52-20.372 15.158-11.156 20.13-22.434c-5.214 3.032-10.307 6.184-15.4 9.458-4 2.425-7.882 4.972-11.884 7.518-4 2.183-7.882 4.365-11.884 6.669-3.517 5.7-6.912 11.4-10.307 17.1-2.668 3.517-5.336 7.033-7.882 10.55a640.616 640.616 0 0 0-13.581 5.7c-4.123 6.063-8 12.248-11.884 18.553-3.638 4.123-7.276 8.246-10.914 12.49-3.4 4-6.669 8.125-9.944 12.247a465.645 465.645 0 0 0-9.58 6.791c-4.123.728-8.246 1.455-12.369 2.3a516.63 516.63 0 0 0-8.367 18.8c-1.455 6.306-2.789 12.733-4.123 19.038-4.244 4.244-8.488 8.61-12.611 13.1a1189.583 1189.583 0 0 0-15.4 10.792c-1.94 8-3.759 16.007-5.336 23.889l-7.64 14.915c-2.183 5.214-4.244 10.55-6.306 15.885-2.91 4.85-5.821 9.7-8.731 14.673-.965 5.452-2.42 11.032-3.875 16.608z" transform="translate(-78.906 -84.416)" fill="url(#linear-gradient-10)"/><path id="XMLID_67_" d="M338.467 389.24l1.455 20.493-12.369 17.219-8.488 52.87s-10.186 72.151-9.7 73.849-.365 43.17-.365 43.17c2.547-15.764 5.821-31.407 9.458-46.807a580.01 580.01 0 0 1 3.638-45.716c3.153-13.581 6.669-27.042 10.792-40.259 1.334-13.945 3.032-27.89 5.336-41.836 5.821-6.427 11.884-12.733 17.947-18.8-2.668-12.854-4.851-25.95-6.669-39.289 10.065-10.186 20.372-20.008 30.922-29.346-2.3-8.246-4.365-16.734-6.306-25.223 6.306-10.065 12.854-20.008 19.766-29.709 4.608-6.063 9.337-11.884 14.188-17.826 2.668-10.065 5.457-20.13 8.731-30.316 7.033-3.032 14.066-5.942 21.1-8.61 7.033-13.339 14.673-26.435 22.8-39.41l-20.372 20.493-7.518 11.52-20.983 10.677-15.643 36.864-25.95 39.41-4.729 25.1-25.95 30.922z" transform="translate(-33.128 -72.381)" fill="url(#linear-gradient-11)"/><path id="XMLID_71_" d="M270.194 385.334l4.851 27.405 3.638 18.674-13.824 29.1-6.548 56.872L240 541.883l.243 71.666c.364-19.523 1.576-39.047 3.4-58.57 7.64-12.49 15.643-24.737 23.889-36.5q4.911-27.648 11.641-54.932c2.668-14.188 5.7-28.254 9.216-42.321-2.91-10.792-5.457-21.706-7.882-32.741 9.7-15.522 19.766-30.437 30.316-45.11a770.215 770.215 0 0 1 22.312-47.535c8.61-12.733 17.7-25.223 27.041-37.47 7.639-13.581 15.764-27.042 24.253-40.259 12.611-11.762 25.465-23.04 38.683-33.832 9.337-18.8 19.645-37.47 30.8-55.781l-21.463 24.495-16.977 25.829-27.89 21.585-19.529 24.493-18.311 38.319-38.561 50.324-14.794 31.047z" transform="translate(-47.799 -84.118)" fill="url(#linear-gradient-12)"/><path id="XMLID_74_" d="M225.328 382.06c-.97.97-37.228 55.3-37.228 55.3l7.518 36.5 5.457 27.89-4.608 41.35 16.855 39.9a790.475 790.475 0 0 1-8-64.148c1.7-9.944 3.638-19.766 5.7-29.588-3.88-16.855-7.276-34.075-10.186-51.536q14.006-26.557 29.709-51.536 6.912-40.744 17.947-81.246c13.46-15.522 27.405-30.316 41.714-44.625 8-13.581 16.249-26.92 24.98-40.138 7.033-9.337 14.309-18.553 21.706-27.648 13.824-12.248 27.89-24.131 42.321-35.409 5.821-10.914 11.884-21.706 18.189-32.5Q418.135 107.7 439.841 92l-50.809 22.919-8.61 26.92-35.53 32.013-18.311 15.764-23.646 39.653-40.623 47.05-18.432 28.375s-17.58 76.395-18.552 77.366z" transform="translate(-58.834 -91.879)" fill="url(#linear-gradient-13)"/><path id="XMLID_77_" d="M146.4 377.276L135 404.923l.728 22.191 3.759 31.407-2.3 35.651L143 517.819l14.673 23.767 1.091-13.46a701.894 701.894 0 0 1-7.518-12.854c-.485-5.457-.849-10.914-1.213-16.249 1.091-5.578 2.183-11.035 3.274-16.613-.485-5.578-.849-11.156-1.213-16.734q-3.274-8.185-6.184-16.37a416.037 416.037 0 0 1-1.819-17.7c2.425-4.972 4.972-9.943 7.4-14.915-.849-5.214-1.7-10.429-2.425-15.643.121-5.336.364-10.792.485-16.249 4.729-3.759 9.337-7.4 14.066-10.914a572.024 572.024 0 0 1 12.975-11.156l7.64-13.1c5.821-3.274 11.52-6.548 17.341-9.7 1.7-5.336 3.517-10.55 5.336-15.764 1.7-5.093 3.4-10.186 5.214-15.279q-.909-7.64-1.455-15.279c2.061-4.123 4.244-8.125 6.427-12.248 1.213-4.85 2.425-9.58 3.638-14.43 4.244-3.032 8.488-5.942 12.733-8.852 4.244-3.032 8.488-5.942 12.733-8.852 2.3-6.063 4.729-12 7.276-18.068q1.273-9.458 2.91-18.917l12.369-4c2.425-4 4.972-7.882 7.518-11.884 3.759-2.789 7.64-5.457 11.4-8.125l8.731-10.55c2.789-7.4 5.7-14.794 8.61-22.07 2.3-5.7 4.608-11.277 7.033-16.977 5.457-.849 11.035-1.7 16.492-2.425 4.365-3.032 8.731-6.063 13.218-9.095 4.85-1.7 9.7-3.274 14.551-4.85 4.972-1.091 10.065-2.183 15.037-3.274 4.365-1.091 8.61-2.3 12.854-3.274l-33.472-1.216-13.1 7.4-16.855 4.85-14.066 11.277-17.341 36.257-27.042 23.282-.849 9.095-11.762 4.608-8.973 26.071-22.07 20.251-11.4 6.063-.606 22.191-8.362 17.46-1.576 17.341-8.488 14.673-23.161 26.435z" transform="translate(-70.125 -87.095)" fill="url(#linear-gradient-14)"/><path id="XMLID_79_" d="M120.425 293.2l-7.882 16.5 6.063 8-9.216 49.839-17.461 42.076L81.5 423.076l6.184 20.372-4.972 17.462 13.945 17.583c-2.3-4.244-4.608-8.61-6.791-12.975.485-5.093.97-10.186 1.576-15.279-.728-5.093-1.334-10.307-1.94-15.522.728-5.093 1.455-10.186 2.3-15.158 2.789-4.729 5.457-9.458 8.367-14.066 2.183-6.063 4.487-12.005 6.791-17.947a2819.533 2819.533 0 0 1 6.184-17.7c1.819-5.093 3.638-10.065 5.457-15.158.243-4.608.485-9.216.849-13.824 1.576-4.487 3.153-9.095 4.729-13.581 1.213-4.365 2.425-8.852 3.759-13.218l-3.274-13.46c3.759-5.214 7.64-10.307 11.52-15.279a444.482 444.482 0 0 1 11.884-9.337c4.972-.728 9.943-1.455 14.794-2.183a285.016 285.016 0 0 1 5.093-14.309 319.173 319.173 0 0 1-2.183-15.522c1.819-4.244 3.638-8.488 5.578-12.854 3.88-2.061 7.761-4 11.641-5.942 6.912-1.576 13.7-3.153 20.615-4.608 3.759-7.033 7.64-13.945 11.641-20.857 2.789-6.306 5.7-12.611 8.61-18.917 4.244.849 8.488 1.7 12.733 2.668a827.68 827.68 0 0 1 12.611-16.249c1.819-.849 3.759-1.7 5.578-2.547 4.729 0 9.337.121 14.066.121-.121-5.7-.243-11.52-.243-17.341.606-4.123 1.334-8.246 1.94-12.369a681.51 681.51 0 0 1 21.948-2.91l12.733-2.91c5.821-.485 11.641-.97 17.462-1.334l-40.132-4.126-18.432 5.821-2.425 28.5-21.221 4.479-5.821 12.248-23.04 1.7-16.249 41.714-31.528 8.973-6.669 20.857 2.668 14.066-7.882 6.669-16.977 10.186z" transform="translate(-81.5 -85.117)" fill="url(#linear-gradient-15)"/></g></g></svg>