<svg xmlns="http://www.w3.org/2000/svg" viewBox="2931 866 194.9 267.784"><defs><style>.cls-1{fill:#e6e6e6}.cls-2{fill:#333}.cls-3{fill:#ff8d00}</style></defs><g id="_689559" data-name="689559" transform="translate(2819 842.928)"><g id="XMLID_1_" transform="translate(112 23.072)"><g id="XMLID_9_" transform="translate(8.998 46.836)"><path id="XMLID_32_" class="cls-1" d="M127.887 283.3c-.652 2.869-1.3 5.738-2.087 8.542.065 0 .2.065.261.065 1.174-2.282 2.478-4.564 3.717-6.847a15.928 15.928 0 0 1-1.891-1.76z" transform="translate(-125.8 -160.453)"/><path id="XMLID_33_" class="cls-1" d="M140.33 268.517c-.391.783-1.5 1.043-1.956.391a9.818 9.818 0 0 1-.652-1.109 54.906 54.906 0 0 1-2.021 7.3c.913.326 1.826.717 2.739 1.043a22 22 0 0 1 .652-2.217 30.482 30.482 0 0 1 1.3-5.477.064.064 0 0 0-.062.069z" transform="translate(-129.245 -155.059)"/><path id="XMLID_36_" class="cls-1" d="M172.96 146.8q-.391-3.912-.587-7.825a72.905 72.905 0 0 1-.326-15.975 6.831 6.831 0 0 0 .522.717c0 .13.065.2.065.326a1.041 1.041 0 0 0 .456.587c.065-.652.065-1.3.13-1.826a73.254 73.254 0 0 1 2.673-14.932c.065-.717.13-1.5.2-2.217.13.261.261.587.391.848a.441.441 0 0 1 .587.391v.717a3.494 3.494 0 0 1 .326.717 1.284 1.284 0 0 0 .978.652c-.913-2.217-1.63-4.434-2.282-6.586a46.542 46.542 0 0 1-1.761-7.5c-.065.456-.13.782-.13.848a21.066 21.066 0 0 0 0 2.869 3.816 3.816 0 0 0 .13.848.228.228 0 0 0-.065.13 30.621 30.621 0 0 1-.065 4.89.685.685 0 0 1-.326.587c.456 4.108-.848 8.738-1.956 12.454a110.053 110.053 0 0 1-4.434 12c-.717 4.5-1.5 8.933-2.413 13.367-.065 1.043-.065 2.152-.13 3.2-.065 2.478.652 10.042-1.239 13.758v.717l-4.369 8.542a3.175 3.175 0 0 0 .065.782c.326 3.13.587 6.26-.717 9.259a1.222 1.222 0 0 1-2.217.065l-.2-.391a12.825 12.825 0 0 1-.717 5.608 1.205 1.205 0 0 1-2.217.065 4.864 4.864 0 0 1-.456-.782c-.065 3.521-.13 7.042-1.565 10.3a1.222 1.222 0 0 1-2.217.065l-.391-.978-3.26 4.695v.717a29.013 29.013 0 0 1-1.043 7.564 1.461 1.461 0 0 1 2.087-.717 26.553 26.553 0 0 0 4.238 2.282c1.043-5.347 2.739-10.694 3-15.78a1.6 1.6 0 0 1 2.934-.652 9.141 9.141 0 0 0 3.456 3.586 3.178 3.178 0 0 0 .456-.2c.391-1.369.717-2.739.978-3.912 1.891-8.085 3.391-16.367 4.825-24.582.13-.848 1.239-1.174 2.087-.782h.065a1.364 1.364 0 0 1 .391.261 14.853 14.853 0 0 0 3.456 2.423 1.272 1.272 0 0 0 .522-.065c-1.826-7.047-2.543-14.611.065-21.135z" transform="translate(-132.272 -94.9)"/></g><g id="XMLID_16_" transform="translate(90.962 99.066)"><path id="XMLID_39_" class="cls-1" d="M258.477 376.3a.228.228 0 0 1-.065.13 2.553 2.553 0 0 1-1.369 1.369c-1.369 2.739-2.8 5.412-4.238 8.085-.326.587-.652 1.174-.913 1.761-.13.391-.261.717-.391 1.108 1.174.456 2.282.913 3.391 1.435a47.088 47.088 0 0 1 1.174-4.043 67.7 67.7 0 0 1 2.411-9.845z" transform="translate(-251.5 -245.041)"/><path id="XMLID_37_" class="cls-1" d="M306.7 257.8c.065 1.891.065 3.782.13 5.738a46.893 46.893 0 0 0 1.3-8.933z" transform="translate(-270.707 -202.696)"/><path id="XMLID_41_" class="cls-1" d="M319.652 187.324c-.2 1.956-.326 3.847-.456 5.8-.065 1.108-.13 2.869-.2 4.89.2.587.326 1.174.522 1.761 2.021-8.151 2.413-16.432 2.608-24.778-.713 4.111-1.561 8.219-2.474 12.327z" transform="translate(-274.986 -175)"/><path id="XMLID_38_" class="cls-1" d="M314.726 240c-.065.13-.13.326-.2.456l-.065 1.239-.065.13c.261.913.587 1.891.848 2.8a30.111 30.111 0 0 0 .522-4.238.874.874 0 0 1-1.04-.387z" transform="translate(-273.386 -197.616)"/><path id="XMLID_45_" class="cls-1" d="M267.139 365.96c.326-1.043.652-2.152.978-3.26a1 1 0 0 1-1.7.391c-.587 1.3-1.239 2.673-1.826 3.978l-.2.587c.4-1.109 1.639-2.217 2.748-1.696z" transform="translate(-255.988 -240.309)"/><path id="XMLID_46_" class="cls-1" d="M279.759 329.2a28.746 28.746 0 0 1-1.5 4.564 2.492 2.492 0 0 1-1.043 1.236A133.782 133.782 0 0 1 272 355.869a32.982 32.982 0 0 0 4.108 2.347c1.7-8.151 4.108-16.432 5.282-24.257a24.129 24.129 0 0 1-1.631-4.759z" transform="translate(-258.633 -228.653)"/></g><g id="XMLID_11_" transform="translate(58.163 14.494)"><path id="XMLID_62_" class="cls-1" d="M235.3 197.359a5.993 5.993 0 0 1-4.238-5.216 2.774 2.774 0 0 1-.261-2.934 1.425 1.425 0 0 1 .2-.326 43.55 43.55 0 0 1 2.869-10.433c.326-2.934.13-5.869.782-8.8a28.73 28.73 0 0 1 4.825-10.3 64.575 64.575 0 0 1 9.846-10.759 22.05 22.05 0 0 1-6.129 1.761c-1.369.2-1.565-1.891-.587-2.673 1.891-1.5 3.847-2.8 5.8-4.108-1.174-.065-1.63-1.761-.522-2.673 2.478-1.891 5.086-3.652 7.564-5.477a17.183 17.183 0 0 0-6.26 1.826c-1.63.782-2.8-.326-3.13-1.761a13.143 13.143 0 0 1-1.5-.456 1.518 1.518 0 0 1-.522-2.413 12.275 12.275 0 0 1 4.3-2.8c.848-1.369 1.63-2.8 2.478-4.238a12.619 12.619 0 0 1 1.435-9.259c-.456-1.239-.913-2.478-1.3-3.717-1.761-5.738-3.13-12.846-.391-18.779a1.227 1.227 0 0 1 2.021-.391 18.463 18.463 0 0 1 1.3 1.826 89.44 89.44 0 0 1 4.5-9.846 28.521 28.521 0 0 1 1.761-4.434 1.271 1.271 0 0 1 .652-.652c.13-.391.326-.717.456-1.108-1.7-.522-3.326-1.174-4.956-1.761-1.5-.587-1.369-2.869-.587-4.108 1.5-2.282 3.065-4.564 4.63-6.781a29.29 29.29 0 0 1-2.934-10.629 1.271 1.271 0 0 1 2.087-1.043c.587.522 1.174 1.043 1.761 1.63-1.7-3.717-2.934-7.368-2.543-9.324a16.623 16.623 0 0 1-.848-1.891 35.787 35.787 0 0 1-2.217 8.346 1.089 1.089 0 0 1-1.956.065 3.7 3.7 0 0 0-.522-.848 34.441 34.441 0 0 0-.717 5.8c-.2 2.217-.522 4.434-.848 6.651a88.317 88.317 0 0 1-2.347 12.389l-1.435 11.737-5.8 35.6L231 157.91l-5.738 21.453c.522 7.433-.456 15.258-3.13 21.518a.977.977 0 0 1-1.369.456c-.065-.065-.13-.065-.2-.13a9.989 9.989 0 0 1-.13 2.739 1.341 1.341 0 0 1-1.5 1.043 10.4 10.4 0 0 1-2.087-1.043c-.065.065-.065.13-.13.261-1.043 6.521-1.3 13.041-3.586 19.366-.456 1.239-1.956 1.109-2.021-.2-.065-.848-.065-1.63-.2-2.413-.913 3.717-2.021 7.5-4.564 10.237a1.122 1.122 0 0 1-1.435.2 60.748 60.748 0 0 1-3.717 13.889c1.369-1.565 2.673-3.13 4.108-4.695 3.325-4.043 6.651-7.955 9.976-11.933 3.847-11.02 10.889-20.475 18.975-28.756a20.89 20.89 0 0 0 1.048-2.543z" transform="translate(-201.2 -45.3)"/></g><g id="XMLID_28_" transform="translate(148.669 97.892)"><path id="XMLID_43_" class="cls-1" d="M371.277 313.082c-.522.522-1.435.652-1.761-.13a4.492 4.492 0 0 0-.2-.522 1.011 1.011 0 0 1-1.5.261 26.815 26.815 0 0 1-2.016-1.891 73.6 73.6 0 0 0 3.26 7.694 23.178 23.178 0 0 1 2.217-5.151z" transform="translate(-348.977 -221.077)"/><path id="XMLID_52_" class="cls-1" d="M401.661 176.852c-.261 2.8-.261 6.195-.261 6.651.065 1.5.13 3 .261 4.564.261 1.435.522 2.934.717 4.369a93.72 93.72 0 0 1 3.782-3.391 21.354 21.354 0 0 1-3.456-8.216c-.13-.978 1.3-.978 2.087-.391a21.216 21.216 0 0 1 1.891 1.5c-1.891-3-3.326-5.868-3-7.238-.326-.522-.717-.978-.978-1.5a17.943 17.943 0 0 1-1.043 3.652zm.326 3.065c.261.522.2 1.109.456 1.63a.074.074 0 1 1-.13.065c-.261-.522-.2-1.108-.456-1.63-.001-.066.065-.131.13-.066z" transform="translate(-361.364 -173.2)"/><path id="XMLID_47_" class="cls-1" d="M380.89 250.968a55.1 55.1 0 0 1 5.8-1.956c-1.174-.261-1.761-1.63-.652-2.021 2.478-.913 5.021-1.761 7.564-2.608a18.646 18.646 0 0 0-6.325.2 2.91 2.91 0 0 1-3.26-1.826l-1.565-.587c-.848-.391-1.435-1.369-.652-1.826a10.336 10.336 0 0 1 4.3-1.239c.782-.848 1.565-1.7 2.347-2.608a6.244 6.244 0 0 1 1.043-6.455c-.522-.978-1.043-1.956-1.5-2.934-2.087-4.5-3.782-9.846-1.174-13.693a1.589 1.589 0 0 1 2.087.065c.522.522.978 1.043 1.435 1.565a36.583 36.583 0 0 1 4.173-6.325 10.5 10.5 0 0 1 1.63-2.869.778.778 0 0 1 .587-.326c.13-.261.326-.456.456-.717-1.761-.717-3.456-1.435-5.151-2.152a1.915 1.915 0 0 1-1.239-1.435.986.986 0 0 1-.717-.782c0-.13-.065-.326-.065-.587a70.047 70.047 0 0 0-1.7-8.346 44.019 44.019 0 0 0 .13 9.259c.13 1.3-1.63 2.543-2.152 1.108-.13-.326-.261-.587-.391-.913.13 3.912.913 7.694 1.3 11.607.13 1.239-1.7 1.826-2.087.717-.391-1.043-.717-2.087-1.109-3.13l-1.174 6.716c.261 1.826.587 3.717.913 5.477a69.245 69.245 0 0 1 1.826 8.281c.2 1.369-1.174 2.217-1.956 1.63.065.522.13.978.2 1.5.2 1.3-1.174 2.413-2.087 1.435a20.8 20.8 0 0 0-1.7-1.7 12.8 12.8 0 0 0 .2 3.521c.261 1.239-1.174 2.087-1.891 1.369.13 2.934.522 5.868.652 8.8a1.16 1.16 0 0 1-1.5 1.239c-.2.587-.326 1.174-.587 1.761 0 .065-.065.065-.065.13.456.782.913 1.5 1.3 2.152a1.251 1.251 0 0 1-1.826 1.63c-.261-.261-.587-.522-.848-.782v.782c.456 1.174.848 2.413 1.3 3.586.456 1.239-.652 2.347-1.63 1.826a1.271 1.271 0 0 1-.065.522c-.13 1.109-1.369 1.826-2.021 1.043a1.276 1.276 0 0 1-1.565 1.109c.065.782.13 1.565.13 2.413.522 1.7 1.108 3.391 1.63 5.151a14.42 14.42 0 0 1 .391-4.108 13.782 13.782 0 0 1 4.5-6.586 43.51 43.51 0 0 1 9.585-6.064 27.763 27.763 0 0 1-6.195.2c-1.348-.263-1.608-1.828-.63-2.219z" transform="translate(-350.96 -179.567)"/><path id="XMLID_42_" class="cls-1" d="M354.476 324.6c1.369 3.26 3.13 6.39 4.3 9.194.587 1.369-1.174 2.608-1.956 1.3-1.3-2.282-2.543-4.564-3.912-6.781l-.587 1.761a50.061 50.061 0 0 0 2.087 5.151c.652 1.369-1.174 2.543-1.891 1.3-.261-.391-.522-.848-.783-1.239.456 1.3.978 2.608 1.369 3.912.456 1.3-1.565 2.282-2.087 1.043a15.758 15.758 0 0 0-1.761-3.26c-.065.848-.065 1.63-.13 2.478a1.419 1.419 0 0 1-1.7 1.3 16.617 16.617 0 0 0 .13 2.543c.13 1.369-1.5 2.478-2.152 1.109q-1.271 2.934-2.739 5.868a1.532 1.532 0 0 1-.848 1.565 46.316 46.316 0 0 1-1.826 3c1.761-1.239 3.586-2.478 5.347-3.717 3.456-7.3 10.3-12.911 18.192-17.475a12.814 12.814 0 0 0 .848-1.63 9.525 9.525 0 0 1-1.826-.913c-2.272-.64-5.271-3.249-8.075-6.509z" transform="translate(-340 -225.879)"/></g><g id="XMLID_3_" transform="translate(27.503)"><path id="XMLID_30_" d="M199.446 172.353c.2-.261.391-.456.587-.326 1.5.978 2.021 4.173 2.543 6.912a13.2 13.2 0 0 1 .261 1.7.492.492 0 0 1 .522.065c-.2-4.825-.717-9.39-.652-14.28 0-1.5 1.369-3.325 1.891-2.413 1.174 2.021 1.7 5.216 1.956 8.672.261-4.5.587-9 .913-13.563-.326-4.043-.587-8.02-.913-12.128-.13-2.021 1.3-3.717 1.956-2.543 1.891 3.586 2.739 9.129 3.2 15q.1-3.032 0-5.869a53.447 53.447 0 0 0-3.847-19.757c-.456-1.108.717-3.065 1.3-2.478a14.989 14.989 0 0 1 3.717 6.781c.065-1.369.13-2.673.2-4.043l.065-.913c0-3.652.065-7.238-.065-10.759-.065-2.543 2.087-5.086 3-3.847a1.051 1.051 0 0 1 .261.456c.065-.326.065-.652.13-.978a29.382 29.382 0 0 0-.522-3.456c-.456-2.087-1.3-3.521-.913-6.325a2.279 2.279 0 0 1 .717-1.369c.978-.522 1.761-.13 2.347.848.065-.2.065-.456.13-.652a52.435 52.435 0 0 0-.913-9.259c-.2-.848.587-2.021.978-1.826a4.5 4.5 0 0 1 2.152 2.347 13.2 13.2 0 0 0 .261-1.7 54.55 54.55 0 0 0 0-7.3c0-.978.652-2.152 1.174-2.217 1.174-.065 1.891 1.239 2.152 3.065a14.833 14.833 0 0 0 .13-1.7 29.114 29.114 0 0 0-.587-8.8c-.261-.978.587-2.8 1.109-2.087A14.948 14.948 0 0 1 226.31 81c.391-2.152.717-4.238 1.109-6.455-.065-.717-.065-1.435-.2-2.152v-.261a6.2 6.2 0 0 0-.261-1.174c-.13-.522.261-1.369.587-1.043a6.963 6.963 0 0 1 1.043 1.63c.261-2.478.522-4.956.848-7.368l.2-1.761c.065-1.3.065-2.608.13-3.912a6.931 6.931 0 0 1-.13-1.5c0 .13-.13.2-.13.065a2.53 2.53 0 0 1 .13-1.369 1 1 0 0 1 .261-.391c.782-.13 1.239.587 1.5 1.63a41.823 41.823 0 0 1 2.217-6.455c.13-.652.261-1.369.326-2.021a14.932 14.932 0 0 0-.261-4.76c-.065-.326.13-.978.391-.978a1.914 1.914 0 0 1 .652.2h.2a12.948 12.948 0 0 1 1.369 1.3c.391-2.021.978-3.912 1.435-6 .2-.782.717-1.108.782-.456a.24.24 0 0 0 .065.2c.391-1.761.782-3.521 1.239-5.282.326-1.369 1.043-1.5 1.369-.913V31.7l-.391-1.108a1.775 1.775 0 0 0 .522-.652c.065-1.108.13-2.152.2-3.2 0-.065.065-.13.065-.2a3.171 3.171 0 0 0 0-1.761v-.978c-.065-1.043-.848-.391-1.109.522a8.386 8.386 0 0 0-.261 1.239c-.717 1.7-1.369 3.391-2.087 5.086V30.4c0-.848-.522-.782-.848 0-.782 2.087-1.7 3.978-2.478 6.064a19.518 19.518 0 0 0-.978-2.478c-.065-.065-.065-.13-.13-.13a2.554 2.554 0 0 0-.522-.652c-.2-.2-.522.456-.522.913a22.587 22.587 0 0 1-.717 5.8c-.2.717-.456 1.435-.717 2.152a38.862 38.862 0 0 0-3.26 6.129c0-1.435-.261-2.543-1.043-3-.065-.065-.261.065-.326.261a3.1 3.1 0 0 0-.391 1.565c0 .13.065.065.13 0a12.737 12.737 0 0 0-.13 1.891c-.261 1.5-.587 3-.848 4.5-.2.652-.391 1.3-.522 1.956a379.222 379.222 0 0 1-2.217 8.151 16.954 16.954 0 0 0-.652-2.608c-.2-.587-.717.2-.717.848v1.565c0 .13-.065.2-.065.326-.065.848-.13 1.761-.261 2.608-.782 2.347-1.5 4.63-2.282 6.847a26.638 26.638 0 0 0-.848-5.086c-.326-1.239-1.435.391-1.435 1.7a48.256 48.256 0 0 1-1.241 10.756c-.13.652-.261 1.239-.456 1.891.065-2.347-.261-4.3-1.369-5.086-.456-.326-1.3.652-1.5 1.761-.522 2.934-.652 5.608-1.435 8.607l-.587 1.761a10.823 10.823 0 0 0-1.435-4.238c-.326-.522-1.239.391-1.239 1.5a85.175 85.175 0 0 1-.978 11.476c-.065.261-.2.456-.261.717-.391-1.5-.978-2.543-1.956-2.543-.326 0-.717.456-.913 1.108-.913 3.065-.391 5.282-.391 8.02 0 1.5-.065 2.934-.2 4.434-.13.391-.2.717-.326 1.108-.065-.261-.065-.456-.13-.717-.587-2.021-3-.522-3.456 2.543-.652 4.173-1.369 8.412-2.087 12.715l-.2 1.043c-.326 1.565-.652 3.065-.978 4.63a34.514 34.514 0 0 0-2.021-10.5c-.456-1.109-1.891.391-1.7 2.021a93.314 93.314 0 0 1-.391 25.821c-.326 2.282-.717 4.63-1.174 6.977.717-7.173 1.043-14.28.065-19.822-.326-1.891-2.021-.848-2.282 1.63-.522 5.021-1.108 9.976-1.565 14.867-1.174 5.151-2.347 10.237-3.521 15.389a39.876 39.876 0 0 0-.065-11.541c-.326-1.435-1.891-.2-2.152 1.565-1.043 5.738-1.435 11.476-2.217 17.279a.876.876 0 0 0-.456-.391c.065-.717.065-1.435.065-2.152a39.408 39.408 0 0 0-.261-7.955 1.1 1.1 0 0 1-.587-.782 8.687 8.687 0 0 1-.326-1.239c-.065 0-.13.065-.261.13.065 1.63.065 3.2.065 3.456a193 193 0 0 1-.652 20.149 64.24 64.24 0 0 0-1.239-7.5c0-.848.065-1.7.13-2.608a3.435 3.435 0 0 0-1.043 1.891c-.391 2.8-.782 5.608-1.108 8.412a32.931 32.931 0 0 0-1.043-5.282c-.13-.456-.652-.261-.848.456a34.962 34.962 0 0 0-1.239 8.02 5.668 5.668 0 0 0-4.695-1.7c-.2 0-.326.261-.456.522a33.137 33.137 0 0 1 2.021 13.758 6.671 6.671 0 0 0-1.435-1.3.24.24 0 0 0-.2.065c-.065-.261-.13-.456-.2-.717v1.043c0 .065-.065.2 0 .261v.261c-.065 4.238-.065 8.412-.326 12.78-.587-2.608-1.5-4.564-3-4.956-1.239-.326-2.934 2.608-2.282 4.695.456 1.435 1.239 2.282 1.761 3.652a27.558 27.558 0 0 1 1.3 5.738 124.628 124.628 0 0 1 .652 15.845v5.282a1.8 1.8 0 0 0-.065-.587 20.068 20.068 0 0 0-2.608-7.825c-.326-.652-.978.717-.848 1.5 1.239 6 .065 15.845-.782 23.278-.065.326-.065.717-.13 1.043l-.391-2.739c-.13-.717-.913-.326-.913.652a200.928 200.928 0 0 1-2.543 27.321c-.456 2.934 1.174 4.5 2.413 2.934.261.13.652 0 1.043-.587a.392.392 0 0 1 .065-.261c.717-1.761 1.435-3.521 2.217-5.216a6.928 6.928 0 0 1 .717-3.2 190.685 190.685 0 0 0 9.911-23.474c.326-.913.848-.456.652.326-.2 1.043-.456 2.087-.652 3.13.13-.326.261-.587.391-.913 2.8-6.195 6.455-14.41 7.759-21.518.13-.913.913-1.5.913-.522a47.826 47.826 0 0 1-1.108 10.3c-.065.2-.13.391-.2.652.587-1.7 1.108-3.325 1.7-5.021a166.113 166.113 0 0 0 4.63-15.975 53.758 53.758 0 0 0 1.174-6.977c.13-1.891 0-3.521.261-5.412.326-2.739 2.152-3.717 2.673-2.087.652 2.021.522 4.89 0 8.02 1.5-3.912 2.869-7.89 4.173-11.933 0-.13.065-.2.065-.326 0-.065.065-.2.13-.2.13-.326.2-.652.326-.978-.065.261-.065.587-.13.848.065 0 .065.065.13.13a17.508 17.508 0 0 1 .326 2.739 58.61 58.61 0 0 0 3.325-15.389h-.13a25.18 25.18 0 0 1-.065-6.651c.065-.652.587-1.043.782-.782a18.442 18.442 0 0 1 1.891 3.391c-.13-2.282-.261-4.564-.326-6.977a4.363 4.363 0 0 1 .717-2.021c.13.652.2 1.369.326 2.021a34.953 34.953 0 0 1 2.413 4.956 109.143 109.143 0 0 0-2.673-15.584c-.044-.114-.304-1.287-.63-2.461z" transform="translate(-154.18 -23.144)"/><g id="XMLID_17_" transform="translate(4.708)"><path id="XMLID_19_" class="cls-2" d="M234.3 251.3c0 .2.065.391.065.652v-.452a.657.657 0 0 1-.065-.2z" transform="translate(-186.765 -102.482)"/><path id="XMLID_18_" class="cls-3" d="M243.363 30.393a1.775 1.775 0 0 0 .522-.652c.065-1.108.13-2.152.2-3.2 0-.065.065-.13.065-.2a3.171 3.171 0 0 0 0-1.761v-.978c0-.652-.326-.652-.652-.326a24.477 24.477 0 0 1-.782 5.673 23.434 23.434 0 0 1-.782 2.282 43.939 43.939 0 0 0-3.456 6.521 4.926 4.926 0 0 0-.587-2.673c-.2.456-.326.848-.522 1.3a9.506 9.506 0 0 0-.456-1.239 3.163 3.163 0 0 0-.326 1.3c0 .13.065.065.13 0-.065.391-.13 1.174-.2 1.956-.261 1.63-.587 3.2-.913 4.76-.2.717-.391 1.369-.587 2.087-.782 2.869-1.565 5.738-2.282 8.607-.2-.978-.391-1.891-.652-2.739-.2-.587-.782.2-.717.913v1.7c0 .13-.065.261-.065.391-.065.913-.13 1.826-.261 2.8-.782 2.478-1.565 4.89-2.413 7.238a37.832 37.832 0 0 0-.848-5.412c-.326-1.3-1.5.391-1.5 1.761a50.667 50.667 0 0 1-1.3 11.411c-.13.652-.326 1.369-.456 2.021.065-2.478-.326-4.63-1.435-5.347a.588.588 0 0 0-.326-.065c-.522 1.5-.978 3-1.5 4.5 0-.2-.065-.391-.065-.587a46.424 46.424 0 0 1-1.239 7.107c-.2.652-.391 1.3-.587 1.891a11.98 11.98 0 0 0-1.043-3.652c-.13.848-.326 1.7-.522 2.543-.13.652-.261 1.239-.456 1.891a8.39 8.39 0 0 0-.717-4.369 2.317 2.317 0 0 0-.13.652 85.491 85.491 0 0 1-1.043 12.193c-.065.261-.2.522-.261.717-.391-1.63-1.043-2.673-2.087-2.739a1.01 1.01 0 0 0-.652.456v.065a1.952 1.952 0 0 0-.261.652c-.913 3.2-.456 5.608-.456 8.542 0 1.565-.065 3.13-.2 4.76-.13.391-.2.782-.326 1.174-.065-.261-.13-.522-.2-.717-.587-2.152-3.2-.587-3.652 2.673-.652 4.434-1.435 8.933-2.217 13.432l-.261 1.108c-.326 1.63-.652 3.26-1.043 4.89a36.418 36.418 0 0 0-2.152-11.15.544.544 0 0 0-.913-.261c-.2 1.369-.456 2.739-.652 4.108a100.521 100.521 0 0 1-.587 25.626c-.326 2.478-.782 4.89-1.174 7.368.782-7.629 1.108-15.128 0-21a2.824 2.824 0 0 0-.261-.717c-.065.456-.2.913-.261 1.369-.065-.587-.065-1.108-.13-1.63-.652-.065-1.5.978-1.7 2.739-.587 5.282-1.108 10.563-1.63 15.78-1.3 5.412-2.478 10.824-3.717 16.3.456-4.5.652-8.868-.065-12.259-.261-1.174-1.3-.652-1.891.522-.261.978-.456 2.021-.717 3-.848 5.477-1.3 10.955-2.021 16.5a.78.78 0 0 0-.456-.456c.065-.782.065-1.5.065-2.282 0-1.108.065-2.282.065-3.456-.13.522-.261 1.108-.391 1.63.13-1.369.261-2.673.326-3.978a12.544 12.544 0 0 0-.978-4.63c-.13-.261-.391-.2-.587 0 .065 1.761.065 3.391.065 3.652 0 6.847.065 14.084-.652 21.387-.456-2.673-.652-5.542-1.3-7.955.065-.913.065-1.826.13-2.739a3.3 3.3 0 0 0-1.109 2.021c-.456 3-.782 5.934-1.108 8.868a33.179 33.179 0 0 0-1.043-5.412c-.065 2.478-.261 4.956-.522 7.433-.326-1.826-.456-3.782-.782-5.608a40.725 40.725 0 0 0-.978 7.042 5.979 5.979 0 0 0-4.3-1.826c-.13 1.043-.261 2.087-.326 3.2a34.509 34.509 0 0 1 1.239 12 5.842 5.842 0 0 0-1.5-1.369c-.065-.065-.13 0-.2.065-.065-.261-.13-.522-.2-.717v1.109c0 .065-.065.2-.065.261v.326c-.065 4.5-.065 8.933-.326 13.563-.587-2.8-1.565-4.825-3.13-5.282a1.14 1.14 0 0 0-.978.261l-.2 5.477a12.4 12.4 0 0 0-1.108-3.326 4.234 4.234 0 0 0-.065 2.543c.522 1.565 1.3 2.478 1.891 3.912a31.491 31.491 0 0 1 1.369 6.129 127.5 127.5 0 0 1 .717 16.823v5.608a2.218 2.218 0 0 0-.065-.652 21.678 21.678 0 0 0-2.739-8.346c-.326-.717-1.043.782-.913 1.565 1.3 6.39.065 16.823-.848 24.713-.065.391-.065.782-.13 1.108-.13-.978-.261-1.956-.456-2.934-.13-.717-.913-.326-.913.652A198.407 198.407 0 0 1 161.4 287.3c.391-.978.848-2.021 1.3-3a6.928 6.928 0 0 1 .717-3.2 190.677 190.677 0 0 0 9.911-23.474c.326-.913.848-.456.652.326-.2 1.043-.456 2.087-.652 3.13.13-.326.261-.587.391-.913 2.8-6.195 6.455-14.41 7.759-21.518.13-.913.913-1.5.913-.522a47.827 47.827 0 0 1-1.109 10.3c-.065.2-.13.391-.2.652.587-1.7 1.108-3.325 1.7-5.021a166.116 166.116 0 0 0 4.63-15.975 53.755 53.755 0 0 0 1.174-6.977c.13-1.891 0-3.521.261-5.412.326-2.739 2.152-3.717 2.673-2.087.652 2.021.522 4.89 0 8.02 1.5-3.912 2.869-7.89 4.173-11.933 0-.13.065-.2.065-.326 0-.065.065-.2.13-.2.13-.326.2-.652.326-.978-.065.261-.065.587-.13.848.065 0 .065.065.13.13a17.508 17.508 0 0 1 .326 2.739 58.61 58.61 0 0 0 3.325-15.389h-.13a25.181 25.181 0 0 1-.065-6.651c.065-.652.587-1.043.782-.782a18.441 18.441 0 0 1 1.891 3.391c-.13-2.282-.261-4.564-.326-6.977a4.363 4.363 0 0 1 .717-2.021c.13.652.2 1.369.326 2.021a34.952 34.952 0 0 1 2.413 4.956 109.142 109.142 0 0 0-2.673-15.584c-.065-.2-.261-1.369-.652-2.543.2-.261.391-.456.587-.326 1.5.978 2.021 4.173 2.543 6.912a13.2 13.2 0 0 1 .261 1.7.492.492 0 0 1 .522.065c-.2-4.825-.717-9.39-.652-14.28 0-1.5 1.369-3.325 1.891-2.413a14.952 14.952 0 0 1 1.565 5.216c.13-.065.2-.065.261 0a1.145 1.145 0 0 1 .326.261c.2-3.456.456-6.847.717-10.3-.326-4.043-.587-8.02-.913-12.128-.13-2.021 1.3-3.717 1.956-2.543 1.891 3.586 2.739 9.129 3.2 15q.1-3.032 0-5.869a53.448 53.448 0 0 0-3.847-19.757c-.456-1.108.717-3.065 1.3-2.478a14.989 14.989 0 0 1 3.717 6.781c.065-1.369.13-2.673.2-4.043l.065-.913c0-3.652.065-7.238-.065-10.759-.065-2.543 2.087-5.086 3-3.847a1.051 1.051 0 0 1 .261.456c.065-.326.065-.652.13-.978a29.382 29.382 0 0 0-.522-3.456c-.456-2.087-1.3-3.521-.913-6.325a2.279 2.279 0 0 1 .717-1.369c.978-.522 1.761-.13 2.347.848.065-.2.065-.456.13-.652a52.435 52.435 0 0 0-.913-9.259c-.2-.848.587-2.021.978-1.826a4.5 4.5 0 0 1 2.153 2.352 13.2 13.2 0 0 0 .261-1.7 54.553 54.553 0 0 0 0-7.3c0-.978.652-2.152 1.174-2.217 1.174-.065 1.891 1.239 2.152 3.065a14.837 14.837 0 0 0 .13-1.7 29.114 29.114 0 0 0-.587-8.8c-.261-.978.587-2.8 1.109-2.087a14.949 14.949 0 0 1 1.63 3.391c.391-2.152.717-4.238 1.109-6.455-.065-.717-.065-1.435-.2-2.152v-.255a6.2 6.2 0 0 0-.261-1.174c-.13-.522.261-1.369.587-1.043A6.963 6.963 0 0 1 231.3 71.6c.261-2.478.522-4.956.848-7.368l.2-1.761c.065-1.3.065-2.608.13-3.912a6.932 6.932 0 0 1-.13-1.5c0 .13-.13.2-.13.065a2.53 2.53 0 0 1 .13-1.369 1 1 0 0 1 .261-.391c.782-.13 1.239.587 1.5 1.63a41.824 41.824 0 0 1 2.217-6.455c.13-.652.261-1.369.326-2.021a14.931 14.931 0 0 0-.261-4.76c-.065-.326.13-.978.391-.978a1.913 1.913 0 0 1 .652.2h.2a12.948 12.948 0 0 1 1.369 1.3c.391-2.021.978-3.912 1.435-6 .2-.782.717-1.108.782-.456a.24.24 0 0 0 .065.2c.391-1.761.782-3.521 1.239-5.282.326-1.369 1.043-1.5 1.369-.913v-.065z" transform="translate(-161.4 -23.072)"/></g></g><g id="XMLID_2_" transform="translate(79.094 24.695)"><path id="XMLID_21_" d="M311.546 64.061c0-.065 0-.13.065-.13a2.507 2.507 0 0 0 0-1.565v-.913c-.065-.913-.782-.326-.978.456-.065.391-.2.717-.261 1.108-.652 1.5-1.239 3.065-1.826 4.564v-.2c0-.717-.456-.717-.717 0-.717 1.891-1.5 3.586-2.217 5.477-.261-.717-.522-1.5-.848-2.217-.065-.065-.065-.13-.13-.13a2.031 2.031 0 0 0-.456-.587c-.2-.2-.456.456-.456.782a20.618 20.618 0 0 1-.652 5.216c-.2.652-.391 1.3-.652 1.956a31.753 31.753 0 0 0-2.934 5.542c0-1.3-.261-2.282-.913-2.673-.065-.065-.2.065-.261.2a3.32 3.32 0 0 0-.391 1.369c0 .13.065.065.13 0a9.868 9.868 0 0 0-.13 1.7c-.261 1.369-.522 2.673-.782 4.043-.13.587-.326 1.174-.456 1.761-.652 2.413-1.3 4.89-1.956 7.3a15.445 15.445 0 0 0-.587-2.347c-.13-.522-.652.13-.652.782v1.435a2.825 2.825 0 0 0-.065.326l-.2 2.347c-.652 2.087-1.369 4.108-2.021 6.129a27.972 27.972 0 0 0-.717-4.564c-.261-1.108-1.3.326-1.239 1.5a42.591 42.591 0 0 1-1.109 9.65c-.13.587-.261 1.108-.391 1.7.065-2.087-.261-3.912-1.239-4.5-.456-.261-1.174.587-1.369 1.63-.456 2.608-.587 5.021-1.3 7.694a11.007 11.007 0 0 1-.522 1.565 8.944 8.944 0 0 0-1.3-3.782c-.326-.456-1.108.326-1.108 1.3a78.4 78.4 0 0 1-.848 10.3 4.494 4.494 0 0 1-.261.652c-.326-1.369-.913-2.282-1.761-2.282-.261 0-.652.456-.848.978-.782 2.739-.391 4.76-.391 7.173 0 1.3-.065 2.673-.2 3.978-.065.326-.2.652-.261.978-.065-.2-.065-.391-.13-.652-.522-1.826-2.673-.456-3.13 2.282-.587 3.782-1.174 7.564-1.891 11.411l-.2.913c-.261 1.369-.587 2.739-.848 4.108a30.013 30.013 0 0 0-1.826-9.39c-.391-.978-1.7.326-1.5 1.826a84.029 84.029 0 0 1-.326 23.148c-.326 2.087-.652 4.173-1.043 6.195.652-6.455.913-12.78 0-17.736-.326-1.7-1.826-.782-2.021 1.5-.456 4.5-.978 8.933-1.435 13.367a519.53 519.53 0 0 0-3.13 13.758 36.45 36.45 0 0 0-.065-10.368c-.261-1.3-1.7-.2-1.956 1.435-.913 5.151-1.3 10.3-1.956 15.454a1.107 1.107 0 0 0-.391-.391c0-.652.065-1.3.065-1.891.065-3.2.2-6.847-.848-8.8-.13-.2-.326-.2-.522 0 .065 1.5.065 2.869.065 3.065a170.428 170.428 0 0 1-.587 18.062 65.593 65.593 0 0 0-1.109-6.716c0-.782.065-1.565.065-2.347a2.782 2.782 0 0 0-.978 1.7c-.391 2.543-.652 5.021-.978 7.5a33.27 33.27 0 0 0-.913-4.695c-.13-.391-.587-.261-.782.391a27.983 27.983 0 0 0-1.108 7.173 5.013 5.013 0 0 0-4.173-1.5c-.13 0-.326.2-.391.456a29 29 0 0 1 1.761 12.324 4.176 4.176 0 0 0-1.239-1.174c-.065 0-.13 0-.13.065-.065-.2-.065-.391-.13-.587v.913c0 .065-.065.2 0 .261v.261c-.065 3.782-.065 7.564-.326 11.476-.522-2.347-1.3-4.108-2.673-4.5-1.108-.326-2.673 2.347-2.021 4.238.391 1.3 1.108 2.087 1.565 3.26a22.209 22.209 0 0 1 1.174 5.151 111.032 111.032 0 0 1 .587 14.215v4.695a1.271 1.271 0 0 0-.065-.522 17.237 17.237 0 0 0-2.347-7.042c-.326-.587-.913.652-.782 1.3 1.108 5.412.065 14.215-.717 20.866-.065.326-.065.652-.13.978-.13-.848-.261-1.63-.391-2.478-.13-.587-.782-.261-.782.587a180.549 180.549 0 0 1-2.282 24.517c-.391 2.608 1.043 4.043 2.152 2.608.261.13.587 0 .913-.522a.392.392 0 0 1 .065-.261c.652-1.565 1.3-3.13 1.956-4.63a6.562 6.562 0 0 1 .652-2.869 159.725 159.725 0 0 0 8.868-21c.261-.782.717-.391.587.326-.2.913-.391 1.891-.587 2.8l.391-.782c2.478-5.542 5.8-12.911 6.912-19.236.13-.782.848-1.369.848-.456a46.614 46.614 0 0 1-.978 9.259 1.9 1.9 0 0 0-.13.587c.522-1.5.978-3 1.5-4.5 1.565-4.695 3.065-9.455 4.173-14.345a53.431 53.431 0 0 0 1.043-6.195c.13-1.7 0-3.2.2-4.89.261-2.478 1.891-3.326 2.413-1.826.587 1.826.456 4.369 0 7.173 1.369-3.521 2.543-7.107 3.782-10.694 0-.065.065-.2.065-.261s.065-.13.065-.2c.065-.261.2-.587.261-.848-.065.261-.065.522-.13.782.065 0 .065.065.065.13a13.767 13.767 0 0 1 .261 2.478 49.012 49.012 0 0 0 2.934-13.758h-.13a22.569 22.569 0 0 1-.065-5.934c.065-.587.522-.978.717-.717a17.035 17.035 0 0 1 1.7 3.065c-.13-2.021-.261-4.108-.261-6.26a3.807 3.807 0 0 1 .652-1.826c.065.587.2 1.174.326 1.826a31.013 31.013 0 0 1 2.152 4.434 97.015 97.015 0 0 0-2.413-13.954c-.065-.13-.261-1.239-.587-2.282.13-.261.326-.391.522-.326 1.369.848 1.826 3.782 2.282 6.195.065.522.2.978.261 1.5a.386.386 0 0 1 .456.065c-.2-4.3-.652-8.412-.587-12.78 0-1.369 1.174-3 1.7-2.152 1.043 1.826 1.565 4.695 1.761 7.759.261-4.043.522-8.085.848-12.193-.261-3.586-.522-7.238-.782-10.889-.13-1.826 1.174-3.326 1.761-2.282 1.7 3.2 2.478 8.151 2.869 13.432v-5.282c-.2-7.042-1.369-12.911-3.456-17.671-.456-.978.652-2.739 1.174-2.217a14.165 14.165 0 0 1 3.326 6.064c.065-1.174.13-2.413.2-3.586l.065-.848c0-3.26.065-6.521 0-9.65-.065-2.282 1.891-4.564 2.673-3.456.065.13.2.261.261.391.065-.326.065-.587.13-.913-.13-1.109-.261-2.152-.456-3.13-.391-1.826-1.174-3.13-.848-5.673a2.051 2.051 0 0 1 .652-1.239 1.462 1.462 0 0 1 2.087.717c.065-.2.065-.391.13-.587a47.47 47.47 0 0 0-.848-8.281c-.13-.717.522-1.826.913-1.63a3.757 3.757 0 0 1 1.891 2.087c.065-.522.2-.978.261-1.5a43.507 43.507 0 0 0 0-6.521c0-.913.587-1.956 1.043-1.956 1.043-.065 1.7 1.108 1.956 2.739.065-.522.065-.978.13-1.5a27.521 27.521 0 0 0-.522-7.89c-.2-.848.522-2.543.978-1.891a14.915 14.915 0 0 1 1.5 3.065c.326-1.891.652-3.847.978-5.8a8.853 8.853 0 0 0-.2-1.891v-.261c-.065-.391-.13-.717-.2-1.108-.13-.456.261-1.239.522-.913.326.456.652.913.978 1.435.261-2.217.456-4.434.717-6.651l.2-1.565c.065-1.174.065-2.347.13-3.521a5.617 5.617 0 0 1-.13-1.369c0 .065-.065.2-.13.065a2.09 2.09 0 0 1 .13-1.239c.065-.2.2-.326.261-.326.717-.065 1.109.522 1.369 1.5a40.429 40.429 0 0 1 1.956-5.8c.13-.587.2-1.239.326-1.826a12.464 12.464 0 0 0-.261-4.3c-.065-.261.13-.913.326-.848a1.052 1.052 0 0 1 .587.2h.13c.456.391.848.782 1.239 1.174.391-1.826.848-3.521 1.239-5.347.13-.717.652-.978.717-.391v.2c.326-1.565.717-3.13 1.109-4.76.326-1.174.913-1.3 1.239-.782l-.326-.978a2.368 2.368 0 0 0 .522-.587c-.016-1.376-.016-2.354.049-3.267z" transform="translate(-233.299 -60.96)"/><g id="XMLID_4_" transform="translate(4.109)"><path id="XMLID_6_" class="cls-2" d="M305 265.5c0 .2.065.391.065.587v-.387a.239.239 0 0 1-.065-.2z" transform="translate(-262.356 -132.118)"/><path id="XMLID_5_" class="cls-3" d="M313.087 67.5a2.368 2.368 0 0 0 .522-.587c.065-.978.13-1.956.13-2.869 0-.065 0-.13.065-.13a2.507 2.507 0 0 0 0-1.565v-.913c0-.587-.326-.587-.587-.326a26.476 26.476 0 0 1-.652 5.086c-.2.717-.456 1.369-.652 2.021a37.556 37.556 0 0 0-3.065 5.8 4.149 4.149 0 0 0-.522-2.413c-.13.391-.326.782-.456 1.174-.13-.391-.261-.717-.391-1.108a2.6 2.6 0 0 0-.261 1.174c0 .13.065.065.13 0a10.785 10.785 0 0 0-.13 1.761c-.261 1.435-.522 2.869-.848 4.3-.2.652-.326 1.239-.522 1.826-.717 2.608-1.369 5.151-2.087 7.759a15.251 15.251 0 0 0-.587-2.478c-.2-.522-.717.13-.652.782v1.5c0 .13-.065.2-.065.326-.065.782-.13 1.63-.261 2.478-.717 2.217-1.435 4.369-2.152 6.521a29.859 29.859 0 0 0-.782-4.825c-.326-1.174-1.369.326-1.369 1.63a44.077 44.077 0 0 1-1.174 10.237l-.391 1.761c.065-2.217-.261-4.108-1.3-4.825a.489.489 0 0 0-.326-.065c-.456 1.369-.913 2.673-1.369 4.043 0-.2-.065-.326-.065-.522a37.514 37.514 0 0 1-1.108 6.39c-.2.587-.326 1.174-.522 1.7a11.277 11.277 0 0 0-.978-3.26c-.13.782-.261 1.5-.456 2.282-.13.587-.261 1.108-.391 1.7a7.428 7.428 0 0 0-.652-3.912 1.9 1.9 0 0 0-.13.587 78.391 78.391 0 0 1-.913 10.955c-.065.2-.2.456-.261.652-.326-1.435-.913-2.413-1.826-2.413-.2 0-.391.2-.587.456v.065a1.229 1.229 0 0 0-.261.587c-.848 2.869-.391 5.021-.391 7.629 0 1.435-.065 2.8-.2 4.238-.065.326-.2.717-.261 1.043-.065-.2-.065-.456-.13-.652-.522-1.891-2.869-.522-3.26 2.413-.587 3.978-1.3 8.02-1.956 12.063l-.2.978c-.326 1.435-.587 2.934-.913 4.369a33.425 33.425 0 0 0-1.956-9.976c-.2-.391-.522-.456-.782-.2l-.587 3.717a91.975 91.975 0 0 1-.522 23.018c-.326 2.217-.652 4.369-1.109 6.586.717-6.847.978-13.563 0-18.844a1.226 1.226 0 0 0-.261-.652c-.065.391-.2.848-.261 1.239a11.644 11.644 0 0 0-.13-1.5c-.587-.065-1.369.848-1.5 2.478-.522 4.76-1.043 9.455-1.5 14.15-1.109 4.89-2.217 9.716-3.326 14.606.391-4.043.587-7.89-.065-10.955-.2-1.043-1.174-.587-1.7.456a42.42 42.42 0 0 1-.652 2.673c-.783 4.89-1.174 9.846-1.826 14.8a.877.877 0 0 0-.456-.391c0-.652.065-1.369.065-2.021 0-.978.065-2.021.065-3.065-.13.522-.2.978-.326 1.5a67.3 67.3 0 0 0 .261-3.586 10.745 10.745 0 0 0-.848-4.173c-.13-.2-.326-.2-.522 0 .065 1.565.065 3.065.065 3.26 0 6.129.065 12.585-.587 19.17-.391-2.413-.587-4.956-1.174-7.107 0-.848.065-1.63.065-2.478a2.982 2.982 0 0 0-.978 1.826c-.391 2.673-.717 5.347-1.043 7.955-.261-1.7-.522-3.391-.913-4.89a77.78 77.78 0 0 1-.456 6.651c-.261-1.63-.456-3.391-.717-5.021a32.9 32.9 0 0 0-.848 6.26 5.752 5.752 0 0 0-3.847-1.7c-.13.913-.261 1.891-.326 2.869a30.714 30.714 0 0 1 1.109 10.759 4.639 4.639 0 0 0-1.3-1.239.24.24 0 0 0-.2.065 2.316 2.316 0 0 1-.13-.652v.978c0 .065-.065.2 0 .261v.261c-.065 4.043-.065 8.02-.326 12.128-.522-2.478-1.435-4.3-2.8-4.76a1.059 1.059 0 0 0-.913.261c-.065 1.63-.13 3.26-.2 4.956a9.576 9.576 0 0 0-1.043-2.934 4.516 4.516 0 0 0-.065 2.282c.456 1.369 1.174 2.217 1.7 3.521a26.031 26.031 0 0 1 1.239 5.477 112.474 112.474 0 0 1 .652 15.063v5.021a1.8 1.8 0 0 0-.065-.587 18.465 18.465 0 0 0-2.478-7.433c-.326-.652-.978.717-.782 1.435 1.174 5.738.065 15.063-.717 22.1-.065.326-.065.652-.13 1.043-.13-.913-.261-1.761-.391-2.608-.13-.652-.848-.326-.848.587a179.529 179.529 0 0 1-1.891 22.3c.391-.913.782-1.761 1.174-2.673a6.562 6.562 0 0 1 .652-2.869 159.724 159.724 0 0 0 8.868-21c.261-.782.717-.391.587.326-.2.913-.391 1.891-.587 2.8l.391-.782c2.478-5.542 5.8-12.911 6.912-19.236.13-.782.848-1.369.848-.456a46.61 46.61 0 0 1-.978 9.259 1.9 1.9 0 0 0-.13.587c.522-1.5.978-3 1.5-4.5 1.565-4.695 3.065-9.455 4.173-14.345a53.431 53.431 0 0 0 1.043-6.195c.13-1.7 0-3.2.2-4.89.261-2.478 1.891-3.326 2.413-1.826.587 1.826.456 4.369 0 7.173 1.369-3.521 2.543-7.107 3.782-10.694 0-.065.065-.2.065-.261s.065-.13.065-.2c.065-.261.2-.587.261-.848-.065.261-.065.522-.13.782.065 0 .065.065.065.13a13.764 13.764 0 0 1 .261 2.478 49.01 49.01 0 0 0 2.934-13.758h-.13a22.569 22.569 0 0 1-.065-5.934c.065-.587.522-.978.717-.717a17.037 17.037 0 0 1 1.7 3.065c-.13-2.021-.261-4.108-.261-6.26a3.807 3.807 0 0 1 .652-1.826c.065.587.2 1.174.326 1.826a31.019 31.019 0 0 1 2.152 4.434 97.015 97.015 0 0 0-2.413-13.954c-.065-.13-.261-1.239-.587-2.282.13-.261.326-.391.522-.326 1.369.848 1.826 3.782 2.282 6.195.065.522.2.978.261 1.5a.386.386 0 0 1 .456.065c-.2-4.3-.652-8.412-.587-12.78 0-1.369 1.174-3 1.7-2.152a13.839 13.839 0 0 1 1.435 4.63.2.2 0 0 1 .261 0c.065.065.2.13.261.2.2-3.065.391-6.129.652-9.259-.261-3.586-.522-7.238-.782-10.889-.13-1.826 1.174-3.325 1.761-2.282 1.7 3.2 2.478 8.151 2.869 13.432v-5.282c-.2-7.042-1.369-12.911-3.456-17.671-.456-.978.652-2.739 1.174-2.217a14.166 14.166 0 0 1 3.326 6.064c.065-1.174.13-2.413.2-3.586l.065-.848c0-3.26.065-6.521 0-9.65-.065-2.282 1.891-4.564 2.673-3.456.065.13.2.261.261.391.065-.326.065-.587.13-.913-.13-1.109-.261-2.152-.456-3.13-.391-1.826-1.174-3.13-.848-5.673a2.051 2.051 0 0 1 .652-1.239 1.462 1.462 0 0 1 2.087.717c.065-.2.065-.391.13-.587a47.471 47.471 0 0 0-.848-8.281c-.13-.717.522-1.826.913-1.63a3.757 3.757 0 0 1 1.891 2.087c.065-.522.2-.978.261-1.5a43.511 43.511 0 0 0 0-6.521c0-.913.587-1.956 1.043-1.956 1.043-.065 1.7 1.108 1.956 2.739.065-.522.065-.978.13-1.5a27.521 27.521 0 0 0-.522-7.89c-.2-.848.522-2.543.978-1.891a14.915 14.915 0 0 1 1.5 3.065c.326-1.891.652-3.847.978-5.8a8.855 8.855 0 0 0-.2-1.891v-.261c-.065-.391-.13-.717-.2-1.108-.13-.456.261-1.239.522-.913.326.456.652.913.978 1.435.261-2.217.456-4.434.717-6.651l.2-1.565c.065-1.174.065-2.347.13-3.521a5.616 5.616 0 0 1-.13-1.369c0 .065-.065.2-.13.065a2.09 2.09 0 0 1 .13-1.239c.065-.2.2-.326.261-.326.717-.065 1.109.522 1.369 1.5a40.424 40.424 0 0 1 1.956-5.8c.13-.587.2-1.239.326-1.826a12.465 12.465 0 0 0-.261-4.3c-.065-.261.13-.913.326-.848a1.052 1.052 0 0 1 .587.2h.13c.456.391.848.782 1.239 1.174.391-1.826.848-3.521 1.239-5.347.13-.717.652-.978.717-.391v.2c.326-1.565.717-3.13 1.108-4.76.326-1.174.913-1.3 1.239-.782z" transform="translate(-239.6 -60.944)"/></g></g><g id="XMLID_12_" transform="translate(0 46.477)"><path id="XMLID_22_" d="M143.625 170.608a13.816 13.816 0 0 1 2.087 5.412q-.2-3.912-.2-7.825c-.522-2.413-.978-4.825-1.5-7.3-.261-1.239.782-1.956 1.369-1.109a13.894 13.894 0 0 1 1.761 3.391 10.4 10.4 0 0 1 .391-1.956 30.1 30.1 0 0 0-3.325-7.825c-.456-.717.326-1.7.848-1.239a13.609 13.609 0 0 1 3.325 4.63c-.065-.782-.065-1.565-.13-2.347v-.522a101.8 101.8 0 0 0-.782-6.325c-.2-1.5 1.3-2.608 2.021-1.761a1.422 1.422 0 0 1 .261.326v-.587c-.2-.717-.391-1.435-.652-2.152-.456-1.3-1.239-2.282-1.108-3.847 0-.326.261-.652.456-.652a2.063 2.063 0 0 1 1.891.913c0-.13.065-.261.065-.391a28.155 28.155 0 0 0-1.369-5.608c-.2-.522.326-1.108.652-.913a4.565 4.565 0 0 1 1.761 1.761 4.305 4.305 0 0 0 .065-.913 32.127 32.127 0 0 0-.456-4.3c-.065-.587.391-1.174.782-1.108.913.2 1.5 1.043 1.891 2.152v-.978a15.858 15.858 0 0 0-1.043-5.282c-.261-.587.261-1.565.717-1.043a15.363 15.363 0 0 1 1.5 2.282c.13-1.174.261-2.347.391-3.586-.065-.456-.2-.848-.261-1.3v-.2c-.065-.261-.2-.522-.261-.782-.13-.326.13-.717.391-.522a7.505 7.505 0 0 1 .913 1.108c.065-1.369.065-2.8.13-4.173a4.936 4.936 0 0 1 .065-.978c-.065-.782-.13-1.5-.2-2.282a2.875 2.875 0 0 1-.2-.913c0 .065-.065.13-.065.065a1.589 1.589 0 0 1 0-.782c0-.13.13-.2.2-.13a1.6 1.6 0 0 1 1.239 1.239 15.046 15.046 0 0 1 1.239-3.391 7.26 7.26 0 0 0 .13-1.108 8.675 8.675 0 0 0-.522-2.869c-.065-.2 0-.587.2-.522a1.952 1.952 0 0 1 .522.261c.065 0 .065 0 .13.065.391.326.782.652 1.108.978.2-1.108.456-2.152.717-3.26.065-.456.456-.522.587-.13 0 .065 0 .065.065.13.2-.978.391-1.956.587-2.869.2-.717.717-.717.978-.261l-.391-.717a.869.869 0 0 0 .391-.326 16.487 16.487 0 0 0-.065-1.826v-.065a1.386 1.386 0 0 0-.13-1.043c0-.2-.065-.391-.065-.587-.13-.587-.717-.391-.782.13-.065.2-.065.456-.13.652-.456.848-.848 1.761-1.239 2.608v-.13c-.065-.456-.456-.587-.652-.13-.456 1.108-1.043 2.021-1.5 3.13-.261-.522-.587-1.043-.913-1.63l-.13-.13a1.523 1.523 0 0 0-.456-.456c-.2-.13-.391.2-.326.456a9.361 9.361 0 0 1-.13 3.26l-.391 1.174a11.549 11.549 0 0 0-2.087 3.065 2.446 2.446 0 0 0-.978-1.891c-.065-.065-.2 0-.261.065a1.183 1.183 0 0 0-.2.848c0 .065.065.065.065 0a5.467 5.467 0 0 0 0 1.043c-.13.848-.261 1.7-.391 2.478-.065.326-.2.717-.261 1.043a107.493 107.493 0 0 0-1.108 4.369 12.136 12.136 0 0 0-.652-1.63c-.2-.391-.522 0-.456.391.065.326.065.587.13.913v1.7c-.456 1.239-.848 2.413-1.3 3.586a17.717 17.717 0 0 0-.978-3.13c-.326-.782-1.108-.065-.978.717a21.03 21.03 0 0 1-.2 6.064c-.065.326-.13.717-.2 1.043a4.311 4.311 0 0 0-1.369-3.2c-.391-.261-.978.13-1.043.782a37.957 37.957 0 0 1-.522 4.76 3.771 3.771 0 0 1-.326.913 8.989 8.989 0 0 0-1.369-2.739c-.326-.326-.913 0-.848.652a31.847 31.847 0 0 1 .065 6.586.927.927 0 0 0-.13.391 2.661 2.661 0 0 0-1.7-1.826c-.261-.065-.522.13-.652.456-.456 1.63.065 3 .2 4.63a17.047 17.047 0 0 1 .13 2.608 1.9 1.9 0 0 0-.13.587 3.18 3.18 0 0 1-.2-.456c-.587-1.3-2.347-.848-2.478.848-.2 2.347-.456 4.695-.717 7.107l-.13.587c-.13.848-.261 1.7-.456 2.543a20.9 20.9 0 0 0-2.282-6.521c-.391-.717-1.435-.13-1.174.913A42.672 42.672 0 0 1 132.54 159c-.13 1.3-.261 2.608-.391 3.847.065-4.108-.13-8.216-1.3-11.607-.391-1.174-1.63-.848-1.63.587-.065 2.869-.13 5.673-.2 8.477-.587 2.8-1.109 5.608-1.63 8.412a17.65 17.65 0 0 0-.848-6.781c-.326-.913-1.435-.456-1.565.522-.391 3.2-.326 6.521-.522 9.781-.13-.13-.2-.261-.391-.326 0-.391-.065-.848-.065-1.239-.2-2.087-.326-4.434-1.369-5.934a.315.315 0 0 0-.456-.065 14.565 14.565 0 0 1 .261 2.021 86.466 86.466 0 0 1 .848 11.737 34.771 34.771 0 0 0-1.435-4.63c-.065-.522-.065-.978-.13-1.5a1.114 1.114 0 0 0-.652.913c-.13 1.565-.2 3.13-.261 4.76a27.388 27.388 0 0 0-1.108-3.26c-.13-.261-.522-.261-.652.13a14.059 14.059 0 0 0-.456 4.5 7.124 7.124 0 0 0-3.717-1.826.359.359 0 0 0-.326.2 19.258 19.258 0 0 1 2.478 8.412 7.772 7.772 0 0 0-1.174-.978h-.13a3.18 3.18 0 0 1-.2-.456c0 .2.065.391.065.587v.13a.24.24 0 0 0 .065.2c.261 2.478.522 4.89.587 7.433a5.67 5.67 0 0 0-2.608-3.456c-.978-.391-2.087 1.043-1.435 2.347.456.913 1.108 1.565 1.63 2.478a15.726 15.726 0 0 1 1.369 3.586 56.107 56.107 0 0 1 1.565 9.455c.13 1.043.261 2.021.326 3.065 0-.13-.065-.261-.065-.391a13.036 13.036 0 0 0-2.543-5.021c-.326-.456-.717.261-.587.717 1.369 3.717 1.108 9.324.978 13.5v.587a16.839 16.839 0 0 0-.522-1.7c-.13-.391-.717-.326-.652.2a80.258 80.258 0 0 1-.13 15.323 101.717 101.717 0 0 0 4.238-9.846 99.752 99.752 0 0 1 5.282-11.346c.261-.456.913-.522 1.043-.065.391 1.109.782 1.956 1.043 2.934 1.108-3.978 1.239-8.151 1.565-12.193.065-.717.848-1.174 1.3-.652a11.965 11.965 0 0 1 2.739 5.151 69.923 69.923 0 0 0 .587-13.824c0-1.043 1.174-1.956 1.956-1.369a8.261 8.261 0 0 1 1.761 1.956 31.883 31.883 0 0 1 .587-3.456.8.8 0 0 1 1.174-.587 8.16 8.16 0 0 1 2.347 2.087 25.361 25.361 0 0 0-2.347-11.476c-.2-.456.326-.913.652-.587a12.928 12.928 0 0 1 2.347 3.456c.13-.13.326-.2.391-.065.13.13.2.261.326.391a34.17 34.17 0 0 0-1.043-5.738.322.322 0 0 1 .587-.261 30.7 30.7 0 0 1 1.435 2.934c.065-.065.065-.13.13-.13.13.391.261.848.391 1.239a1.364 1.364 0 0 1 .261.391 22.022 22.022 0 0 0-1.043-6.195c-.065-.13-.13-.326-.2-.456s-.326-.848-.652-1.63l.13-.13c-.065-.391.391-.848.652-.522a13.694 13.694 0 0 1 2.673 6.129h.065c-.456-2.869-1.174-5.608-1.5-8.477-.183-.532.729-1.379 1.186-.792z" transform="translate(-112 -94.349)"/><g id="XMLID_13_" transform="translate(3.174 .037)"><path id="XMLID_15_" class="cls-2" d="M163.6 219.1c0 .13.065.261.065.391v-.261c-.065 0-.065-.065-.065-.13z" transform="translate(-133.128 -137.793)"/><path id="XMLID_25_" class="cls-3" d="M145.319 170.628a10.45 10.45 0 0 1 1.565 3.326.24.24 0 0 1 .2.065c.065.065.2.13.261.2-.065-1.956-.13-3.978-.13-5.934-.522-2.413-.978-4.825-1.5-7.3-.261-1.239.782-1.956 1.369-1.108a13.9 13.9 0 0 1 1.761 3.391 10.4 10.4 0 0 1 .391-1.956 30.1 30.1 0 0 0-3.325-7.825c-.456-.717.326-1.7.848-1.239a13.609 13.609 0 0 1 3.325 4.63c-.065-.782-.065-1.565-.13-2.347V154a101.8 101.8 0 0 0-.782-6.325c-.2-1.5 1.3-2.608 2.021-1.761a1.422 1.422 0 0 1 .261.326v-.587c-.2-.717-.391-1.435-.652-2.152-.456-1.3-1.239-2.282-1.108-3.847 0-.326.261-.652.456-.652a2.063 2.063 0 0 1 1.891.913c0-.13.065-.261.065-.391a28.155 28.155 0 0 0-1.369-5.608c-.2-.522.326-1.108.652-.913a4.565 4.565 0 0 1 1.761 1.761 4.305 4.305 0 0 0 .065-.913 32.127 32.127 0 0 0-.456-4.3c-.065-.587.391-1.174.782-1.108.913.2 1.5 1.043 1.891 2.152v-.978a15.858 15.858 0 0 0-1.043-5.282c-.261-.587.261-1.565.717-1.043a15.364 15.364 0 0 1 1.5 2.282c.13-1.174.261-2.347.391-3.586-.065-.456-.2-.848-.261-1.3v-.2c-.065-.261-.2-.522-.261-.782-.13-.326.13-.717.391-.522a7.506 7.506 0 0 1 .913 1.109c.065-1.369.065-2.8.13-4.173a4.936 4.936 0 0 1 .065-.978c-.065-.782-.13-1.5-.2-2.282a2.875 2.875 0 0 1-.2-.913c0 .065-.065.13-.065.065a1.59 1.59 0 0 1 0-.782c0-.13.13-.2.2-.13a1.6 1.6 0 0 1 1.239 1.239 15.046 15.046 0 0 1 1.239-3.391 7.259 7.259 0 0 0 .13-1.108 8.675 8.675 0 0 0-.522-2.869c-.065-.2 0-.587.2-.522a1.953 1.953 0 0 1 .522.261c.065 0 .065 0 .13.065.391.326.782.652 1.108.978.2-1.109.456-2.152.717-3.26.065-.456.456-.522.587-.13 0 .065 0 .065.065.13.2-.978.391-1.956.587-2.869.2-.717.717-.717.978-.261l-.391-.717a.869.869 0 0 0 .391-.326 16.487 16.487 0 0 0-.065-1.826v-.065a1.386 1.386 0 0 0-.13-1.043c0-.2-.065-.391-.065-.587-.065-.391-.326-.456-.522-.326a11.047 11.047 0 0 1-.2 3.2c-.13.391-.261.848-.391 1.239a16.345 16.345 0 0 0-2.217 3.2 3 3 0 0 0-.652-1.7c-.13.2-.2.456-.326.652l-.391-.782a1.084 1.084 0 0 0-.13.717c0 .065.065.065.065 0a6.1 6.1 0 0 0 0 1.108c-.13.913-.261 1.761-.391 2.673-.13.391-.2.717-.326 1.108-.391 1.565-.782 3.13-1.174 4.63-.2-.587-.456-1.174-.717-1.761-.2-.391-.587-.065-.522.391.065.326.065.652.13.978v1.761c-.456 1.3-.913 2.608-1.369 3.847a19.992 19.992 0 0 0-1.043-3.325c-.326-.848-1.174-.065-1.043.782a21.517 21.517 0 0 1-.2 6.455c-.065.391-.13.717-.2 1.108a4.38 4.38 0 0 0-1.5-3.391.392.392 0 0 0-.261-.065c-.261.782-.587 1.565-.848 2.347a2.825 2.825 0 0 0-.065-.326 21.27 21.27 0 0 1-.456 3.978 5.738 5.738 0 0 1-.326.978 9.534 9.534 0 0 0-1.043-2.347c-.065.456-.13.913-.2 1.435-.065.326-.13.717-.2 1.043a4.824 4.824 0 0 0-.848-2.673.827.827 0 0 0-.065.391 35.727 35.727 0 0 1 .065 6.977.927.927 0 0 0-.13.391 2.826 2.826 0 0 0-1.761-1.956.382.382 0 0 0-.456.2v.065a1.426 1.426 0 0 0-.2.326c-.522 1.7.065 3.2.261 4.89a19.259 19.259 0 0 1 .13 2.739c-.065.2-.13.391-.2.652-.065-.13-.13-.326-.2-.456-.587-1.369-2.478-.913-2.608.913-.2 2.478-.456 5.021-.782 7.5l-.13.587c-.13.913-.326 1.826-.456 2.673a21.184 21.184 0 0 0-2.413-6.912.608.608 0 0 0-.717-.326c-.065.782-.13 1.565-.2 2.282a45.319 45.319 0 0 1 1.239 14.932c-.13 1.369-.261 2.739-.456 4.108a39.305 39.305 0 0 0-1.369-12.324 1.4 1.4 0 0 0-.261-.456c-.065.261-.065.522-.13.782l-.2-.978c-.522-.2-1.109.326-1.109 1.3l-.2 9c-.587 2.934-1.174 5.934-1.761 8.933a19.539 19.539 0 0 0-.913-7.173c-.261-.717-1.043-.587-1.435-.065-.13.522-.2 1.108-.326 1.63-.261 3.065-.261 6.195-.456 9.324a1.729 1.729 0 0 0-.391-.326c0-.456-.065-.848-.065-1.3-.065-.652-.13-1.3-.2-2.021-.065.326-.13.587-.2.913v-2.298a7.5 7.5 0 0 0-1.043-2.869.279.279 0 0 0-.456-.065c.2 1.043.261 2.021.326 2.152a98.077 98.077 0 0 1 .913 12.389c-.522-1.63-.848-3.391-1.5-4.89-.065-.522-.065-1.043-.13-1.565a1.316 1.316 0 0 0-.717.978c-.13 1.7-.2 3.325-.261 5.021a18.9 18.9 0 0 0-1.174-3.391c.065 1.435.13 2.869.13 4.238-.326-1.108-.652-2.347-.978-3.456a15.92 15.92 0 0 0-.261 3.978 7.882 7.882 0 0 0-3.391-1.826 16.483 16.483 0 0 0-.065 1.826 17.973 17.973 0 0 1 1.761 7.3 6.194 6.194 0 0 0-1.239-1.043h-.13c-.065-.13-.13-.326-.2-.456 0 .2.065.391.065.652v.2a.24.24 0 0 0 .065.2c.261 2.608.522 5.216.652 7.89-.652-1.761-1.5-3.13-2.8-3.652a.7.7 0 0 0-.717 0l.2 3.2a8.318 8.318 0 0 0-1.108-2.152 1.848 1.848 0 0 0 .13 1.435c.456.978 1.174 1.7 1.7 2.608a16.88 16.88 0 0 1 1.5 3.847 61.272 61.272 0 0 1 1.7 9.976c.13 1.109.261 2.152.391 3.26 0-.13-.065-.261-.065-.391a14.719 14.719 0 0 0-2.673-5.347c-.326-.456-.782.261-.587.782 1.435 3.978 1.174 9.846 1.043 14.345v.652c-.2-.587-.326-1.174-.522-1.826-.13-.456-.717-.326-.652.261.2 1.7.261 3.391.326 5.151.2-.522.391-1.043.652-1.63a99.754 99.754 0 0 1 5.282-11.346c.261-.456.913-.522 1.043-.065.391 1.109.782 1.956 1.043 2.934 1.109-3.978 1.239-8.151 1.565-12.193.065-.717.848-1.174 1.3-.652a11.965 11.965 0 0 1 2.739 5.151 69.924 69.924 0 0 0 .587-13.824c0-1.043 1.174-1.956 1.956-1.369a8.262 8.262 0 0 1 1.761 1.956 31.879 31.879 0 0 1 .587-3.456.8.8 0 0 1 1.174-.587 8.16 8.16 0 0 1 2.347 2.087 25.361 25.361 0 0 0-2.347-11.476c-.2-.456.326-.913.652-.587a12.928 12.928 0 0 1 2.347 3.456c.13-.13.326-.2.391-.065.13.13.2.261.326.391a34.168 34.168 0 0 0-1.043-5.738.322.322 0 0 1 .587-.261 30.7 30.7 0 0 1 1.435 2.934c.065-.065.065-.13.13-.13.13.391.261.848.391 1.239a1.364 1.364 0 0 1 .261.391 22.022 22.022 0 0 0-1.043-6.195c-.065-.13-.13-.326-.2-.456s-.326-.848-.652-1.63l.13-.13c-.065-.391.391-.848.652-.522a13.694 13.694 0 0 1 2.673 6.129h.065c-.456-2.869-1.174-5.608-1.5-8.477-.543-1.053.37-1.9.827-1.313z" transform="translate(-116.869 -94.406)"/></g></g><g id="XMLID_7_" transform="translate(137.779 96.49)"><path id="XMLID_24_" d="M354.99 247.242a13.816 13.816 0 0 1 2.087 5.412q-.2-3.912-.2-7.825c-.522-2.413-.978-4.825-1.5-7.3-.261-1.239.782-1.956 1.369-1.109a20.637 20.637 0 0 1 2.021 3.978c-.065-.782-.065-1.5-.13-2.282v-.326c0-.326-.065-.587-.065-.913a30.664 30.664 0 0 0-3.065-6.781c-.456-.717.326-1.7.848-1.239a13.359 13.359 0 0 1 2.543 3.13.494.494 0 0 1 .261.13 3.013 3.013 0 0 1 .456.456c0-.456-.065-.978-.065-1.435v-.522a101.8 101.8 0 0 0-.782-6.325c-.2-1.5 1.3-2.608 2.021-1.761a1.423 1.423 0 0 1 .261.326v-.587c-.2-.717-.391-1.435-.652-2.152-.456-1.3-1.239-2.282-1.108-3.847 0-.326.261-.652.456-.652a2.063 2.063 0 0 1 1.891.913c0-.13.065-.261.065-.391a28.157 28.157 0 0 0-1.369-5.608c-.2-.522.326-1.108.652-.913a4.565 4.565 0 0 1 1.761 1.761 4.3 4.3 0 0 0 .065-.913 32.124 32.124 0 0 0-.456-4.3c-.065-.587.391-1.174.782-1.108.913.2 1.5 1.043 1.891 2.152v-.978a15.858 15.858 0 0 0-1.043-5.282c-.261-.587.261-1.565.717-1.043a15.363 15.363 0 0 1 1.5 2.282c.13-1.174.261-2.347.391-3.586-.065-.456-.2-.848-.261-1.3v-.2c-.065-.261-.2-.522-.261-.782-.13-.326.13-.717.391-.522a7.507 7.507 0 0 1 .913 1.109c.065-1.369.065-2.8.13-4.173a4.937 4.937 0 0 1 .065-.978c-.065-.782-.13-1.5-.2-2.282a2.874 2.874 0 0 1-.2-.913c0 .065-.065.13-.065.065a1.589 1.589 0 0 1 0-.782c0-.13.13-.2.2-.13a1.6 1.6 0 0 1 1.239 1.239 15.046 15.046 0 0 1 1.239-3.391 7.26 7.26 0 0 0 .13-1.108 8.676 8.676 0 0 0-.522-2.869c-.065-.2 0-.587.2-.522a1.953 1.953 0 0 1 .522.261c.065 0 .065 0 .13.065.391.326.782.652 1.109.978.2-1.108.456-2.152.717-3.26.065-.456.456-.522.587-.13 0 .065 0 .065.065.13.2-.978.391-1.956.587-2.869.2-.717.717-.717.978-.261l-.391-.717a.869.869 0 0 0 .391-.326 16.483 16.483 0 0 0-.065-1.826v-.065A1.386 1.386 0 0 0 374.1 172c0-.2-.065-.391-.065-.587-.13-.587-.717-.391-.782.13-.065.2-.065.456-.13.652-.456.848-.848 1.761-1.239 2.608v-.13c-.065-.456-.456-.587-.652-.13-.456 1.108-1.043 2.021-1.5 3.13-.261-.522-.587-1.043-.913-1.63l-.13-.13a1.523 1.523 0 0 0-.456-.456c-.2-.13-.391.2-.326.456a9.36 9.36 0 0 1-.13 3.26l-.391 1.174a11.55 11.55 0 0 0-2.087 3.065 2.446 2.446 0 0 0-.978-1.891c-.065-.065-.2 0-.261.065a1.183 1.183 0 0 0-.2.848c0 .065.065.065.065 0a5.466 5.466 0 0 0 0 1.043c-.13.848-.261 1.7-.391 2.478-.065.326-.2.717-.261 1.043a107.493 107.493 0 0 0-1.108 4.369 12.134 12.134 0 0 0-.652-1.63c-.2-.391-.522 0-.456.391.065.326.065.587.13.913v1.7c-.456 1.239-.848 2.413-1.3 3.586a17.718 17.718 0 0 0-.978-3.13c-.326-.782-1.109-.065-.978.717a21.029 21.029 0 0 1-.2 6.064c-.065.326-.13.717-.2 1.043a4.311 4.311 0 0 0-1.369-3.2c-.391-.261-.978.13-1.043.782a37.963 37.963 0 0 1-.522 4.76 3.771 3.771 0 0 1-.326.913 8.989 8.989 0 0 0-1.369-2.739c-.326-.326-.913 0-.848.652a31.846 31.846 0 0 1 .065 6.586.927.927 0 0 0-.13.391 2.661 2.661 0 0 0-1.7-1.826c-.261-.065-.522.13-.652.456-.456 1.63.065 3 .2 4.63a17.049 17.049 0 0 1 .13 2.608 1.9 1.9 0 0 0-.13.587 3.176 3.176 0 0 1-.2-.456c-.587-1.3-2.347-.848-2.478.848-.2 2.347-.456 4.695-.717 7.107l-.13.587c-.13.848-.261 1.7-.456 2.543a20.894 20.894 0 0 0-2.282-6.521c-.391-.717-1.435-.13-1.174.913a42.673 42.673 0 0 1 1.44 15.058c-.13 1.3-.261 2.608-.391 3.847.065-4.108-.13-8.216-1.3-11.607-.391-1.174-1.63-.848-1.63.587-.065 2.869-.13 5.673-.2 8.477-.587 2.8-1.108 5.608-1.63 8.412a17.649 17.649 0 0 0-.848-6.781c-.326-.913-1.435-.456-1.565.522-.391 3.2-.326 6.521-.522 9.781-.13-.13-.2-.261-.391-.326 0-.391-.065-.848-.065-1.239-.2-2.087-.326-4.434-1.369-5.934a.315.315 0 0 0-.456-.065 14.566 14.566 0 0 1 .261 2.021 86.47 86.47 0 0 1 .848 11.737 34.772 34.772 0 0 0-1.435-4.63c-.065-.522-.065-.978-.13-1.5a1.114 1.114 0 0 0-.652.913c-.13 1.565-.2 3.13-.261 4.76a27.391 27.391 0 0 0-1.109-3.26c-.13-.261-.522-.261-.652.13a14.059 14.059 0 0 0-.456 4.5 7.124 7.124 0 0 0-3.717-1.826.359.359 0 0 0-.326.2 19.257 19.257 0 0 1 2.478 8.411 7.772 7.772 0 0 0-1.174-.978h-.13a3.177 3.177 0 0 1-.2-.456c0 .2.065.391.065.587v.13a.239.239 0 0 0 .065.2c.261 2.478.522 4.89.587 7.433a5.67 5.67 0 0 0-2.608-3.456c-.978-.391-2.087 1.043-1.435 2.347.456.913 1.108 1.565 1.63 2.478a15.725 15.725 0 0 1 1.369 3.586 56.109 56.109 0 0 1 1.565 9.455c.13 1.043.261 2.021.326 3.065 0-.13-.065-.261-.065-.391a13.037 13.037 0 0 0-2.543-5.021c-.326-.456-.717.261-.587.717 1.369 3.717 1.109 9.324.978 13.5v.587a16.841 16.841 0 0 0-.522-1.7c-.13-.391-.717-.326-.652.2a80.258 80.258 0 0 1-.13 15.323 101.727 101.727 0 0 0 4.238-9.846 99.746 99.746 0 0 1 5.282-11.346c.261-.456.913-.522 1.043-.065.391 1.109.782 1.956 1.043 2.934 1.109-3.978 1.239-8.151 1.565-12.193.065-.717.848-1.174 1.3-.652a11.965 11.965 0 0 1 2.739 5.151 69.925 69.925 0 0 0 .587-13.824c0-1.043 1.174-1.956 1.956-1.369a8.261 8.261 0 0 1 1.761 1.956 31.89 31.89 0 0 1 .587-3.456.8.8 0 0 1 1.174-.587 8.16 8.16 0 0 1 2.347 2.087 25.361 25.361 0 0 0-2.347-11.476c-.2-.456.326-.913.652-.587a12.928 12.928 0 0 1 2.347 3.456c.13-.13.326-.2.391-.065.13.13.2.261.326.391a34.166 34.166 0 0 0-1.043-5.738.322.322 0 0 1 .587-.261 30.7 30.7 0 0 1 1.435 2.934c.065-.065.065-.13.13-.13.13.391.261.848.391 1.239a1.363 1.363 0 0 1 .261.391 22.022 22.022 0 0 0-1.043-6.195c-.065-.13-.13-.326-.2-.456s-.326-.848-.652-1.63l.13-.13c-.065-.391.391-.848.652-.522a13.694 13.694 0 0 1 2.673 6.129h.065c-.456-2.869-1.174-5.608-1.5-8.477-.182-.661.73-1.443 1.252-.857z" transform="translate(-323.3 -171.049)"/><g id="XMLID_8_" transform="translate(3.174 .037)"><path id="XMLID_10_" class="cls-2" d="M374.9 295.7c0 .13.065.261.065.391v-.261c0-.065 0-.065-.065-.13z" transform="translate(-344.428 -214.458)"/><path id="XMLID_23_" class="cls-3" d="M356.684 247.262a10.45 10.45 0 0 1 1.565 3.325.239.239 0 0 1 .2.065c.065.065.2.13.261.2-.065-1.956-.13-3.978-.13-5.934-.522-2.413-.978-4.825-1.5-7.3-.261-1.239.782-1.956 1.369-1.109a20.636 20.636 0 0 1 2.021 3.978c-.065-.782-.065-1.5-.13-2.282v-.326c0-.326-.065-.587-.065-.913a30.664 30.664 0 0 0-3.065-6.781c-.456-.717.326-1.7.848-1.239a13.359 13.359 0 0 1 2.543 3.13.5.5 0 0 1 .261.13 3.013 3.013 0 0 1 .456.456c0-.456-.065-.978-.065-1.435v-.527a101.8 101.8 0 0 0-.782-6.325c-.2-1.5 1.3-2.608 2.021-1.761a1.422 1.422 0 0 1 .261.326v-.587c-.2-.717-.391-1.435-.652-2.152-.456-1.3-1.239-2.282-1.109-3.847 0-.326.261-.652.456-.652a2.063 2.063 0 0 1 1.891.913c0-.13.065-.261.065-.391a28.155 28.155 0 0 0-1.369-5.608c-.2-.522.326-1.108.652-.913a4.565 4.565 0 0 1 1.761 1.761 4.306 4.306 0 0 0 .065-.913 32.13 32.13 0 0 0-.456-4.3c-.065-.587.391-1.174.782-1.108.913.2 1.5 1.043 1.891 2.152v-.978a15.858 15.858 0 0 0-1.043-5.282c-.261-.587.261-1.565.717-1.043a15.365 15.365 0 0 1 1.5 2.282c.13-1.174.261-2.347.391-3.586-.065-.456-.2-.848-.261-1.3v-.2c-.065-.261-.2-.522-.261-.782-.13-.326.13-.717.391-.522a7.508 7.508 0 0 1 .913 1.108c.065-1.369.065-2.8.13-4.173a4.934 4.934 0 0 1 .065-.978c-.065-.782-.13-1.5-.2-2.282a2.874 2.874 0 0 1-.2-.913c0 .065-.065.13-.065.065a1.59 1.59 0 0 1 0-.782c0-.13.13-.2.2-.13a1.6 1.6 0 0 1 1.239 1.239 15.045 15.045 0 0 1 1.239-3.391 7.26 7.26 0 0 0 .13-1.109 8.676 8.676 0 0 0-.522-2.869c-.065-.2 0-.587.2-.522a1.952 1.952 0 0 1 .522.261c.065 0 .065 0 .13.065.391.326.782.652 1.108.978.2-1.108.456-2.152.717-3.26.065-.456.456-.522.587-.13 0 .065 0 .065.065.13.2-.978.391-1.956.587-2.869.2-.717.717-.717.978-.261l-.391-.717a.869.869 0 0 0 .391-.326 16.484 16.484 0 0 0-.065-1.826v-.065a1.386 1.386 0 0 0-.13-1.043c0-.2-.065-.391-.065-.587-.065-.391-.326-.456-.522-.326a11.048 11.048 0 0 1-.2 3.2c-.13.391-.261.848-.391 1.239a16.345 16.345 0 0 0-2.217 3.2 3 3 0 0 0-.652-1.7c-.13.2-.2.456-.326.652l-.391-.782a1.084 1.084 0 0 0-.13.717c0 .065.065.065.065 0a6.1 6.1 0 0 0 0 1.108c-.13.913-.261 1.761-.391 2.673-.13.391-.2.717-.326 1.108-.391 1.565-.783 3.13-1.174 4.63-.2-.587-.456-1.174-.717-1.761-.2-.391-.587-.065-.522.391.065.326.065.652.13.978v1.761c-.456 1.3-.913 2.608-1.369 3.847a19.991 19.991 0 0 0-1.043-3.326c-.326-.848-1.174-.065-1.043.782a21.518 21.518 0 0 1-.2 6.455c-.065.391-.13.717-.2 1.108a4.38 4.38 0 0 0-1.5-3.391.392.392 0 0 0-.261-.065c-.261.782-.587 1.565-.848 2.347a2.825 2.825 0 0 0-.065-.326 21.269 21.269 0 0 1-.456 3.978 5.738 5.738 0 0 1-.326.978 9.533 9.533 0 0 0-1.043-2.347c-.065.456-.13.913-.2 1.435-.065.326-.13.717-.2 1.043a4.824 4.824 0 0 0-.848-2.673.827.827 0 0 0-.065.391 35.729 35.729 0 0 1 .065 6.977.927.927 0 0 0-.13.391 2.826 2.826 0 0 0-1.761-1.956.382.382 0 0 0-.456.2v.065a1.425 1.425 0 0 0-.2.326c-.522 1.7.065 3.2.261 4.89a19.261 19.261 0 0 1 .13 2.739c-.065.2-.13.391-.2.652-.065-.13-.13-.326-.2-.456-.587-1.369-2.478-.913-2.608.913-.2 2.478-.456 5.021-.783 7.5l-.13.587c-.13.913-.326 1.826-.456 2.673a21.184 21.184 0 0 0-2.413-6.912.608.608 0 0 0-.717-.326c-.065.782-.13 1.565-.2 2.282a45.318 45.318 0 0 1 1.239 14.932c-.13 1.369-.261 2.739-.456 4.108a39.305 39.305 0 0 0-1.369-12.324 1.4 1.4 0 0 0-.261-.456c-.065.261-.065.522-.13.782l-.2-.978c-.522-.2-1.108.326-1.108 1.3l-.2 9c-.587 2.934-1.174 5.934-1.761 8.933a19.539 19.539 0 0 0-.913-7.173c-.261-.717-1.043-.587-1.435-.065-.13.522-.2 1.109-.326 1.63-.261 3.065-.261 6.195-.456 9.324a1.729 1.729 0 0 0-.391-.326c0-.456-.065-.848-.065-1.3-.065-.652-.13-1.3-.2-2.021-.065.326-.13.587-.2.913v-2.295a7.5 7.5 0 0 0-1.043-2.869.279.279 0 0 0-.456-.065c.2 1.043.261 2.021.326 2.152a98.077 98.077 0 0 1 .913 12.389c-.522-1.63-.848-3.391-1.5-4.89-.065-.522-.065-1.043-.13-1.565a1.316 1.316 0 0 0-.717.978c-.13 1.7-.2 3.326-.261 5.021a18.9 18.9 0 0 0-1.174-3.391c.065 1.435.13 2.869.13 4.238-.326-1.109-.652-2.347-.978-3.456a15.919 15.919 0 0 0-.261 3.978 7.882 7.882 0 0 0-3.391-1.826 16.483 16.483 0 0 0-.065 1.826 17.974 17.974 0 0 1 1.761 7.3 6.2 6.2 0 0 0-1.239-1.043h-.13c-.065-.13-.13-.326-.2-.456 0 .2.065.391.065.652v.2a.239.239 0 0 0 .065.2c.261 2.608.522 5.216.652 7.89-.652-1.761-1.5-3.13-2.8-3.652a.7.7 0 0 0-.717 0l.2 3.2a8.318 8.318 0 0 0-1.062-2.161 1.847 1.847 0 0 0 .13 1.435c.456.978 1.174 1.7 1.7 2.608a16.876 16.876 0 0 1 1.5 3.847 61.271 61.271 0 0 1 1.7 9.976c.13 1.108.261 2.152.391 3.26 0-.13-.065-.261-.065-.391a14.719 14.719 0 0 0-2.673-5.347c-.326-.456-.782.261-.587.782 1.435 3.978 1.174 9.846 1.043 14.345v.652c-.2-.587-.326-1.174-.522-1.826-.13-.456-.717-.326-.652.261.2 1.7.261 3.391.326 5.151.2-.522.391-1.043.652-1.63a99.749 99.749 0 0 1 5.282-11.346c.261-.456.913-.522 1.043-.065.391 1.109.782 1.956 1.043 2.934 1.109-3.978 1.239-8.151 1.565-12.193.065-.717.848-1.174 1.3-.652a11.965 11.965 0 0 1 2.739 5.151 69.925 69.925 0 0 0 .587-13.824c0-1.043 1.174-1.956 1.956-1.369a8.261 8.261 0 0 1 1.761 1.956 31.888 31.888 0 0 1 .587-3.456.8.8 0 0 1 1.174-.587 8.16 8.16 0 0 1 2.347 2.087 25.361 25.361 0 0 0-2.347-11.476c-.2-.456.326-.913.652-.587a12.928 12.928 0 0 1 2.347 3.456c.13-.13.326-.2.391-.065.13.13.2.261.326.391a34.169 34.169 0 0 0-1.043-5.738.322.322 0 0 1 .587-.261 30.7 30.7 0 0 1 1.435 2.934c.065-.065.065-.13.13-.13.13.391.261.848.391 1.239a1.364 1.364 0 0 1 .261.391 22.022 22.022 0 0 0-1.043-6.195c-.065-.13-.13-.326-.2-.456s-.326-.848-.652-1.63l.13-.13c-.065-.391.391-.848.652-.522a13.694 13.694 0 0 1 2.673 6.129h.065c-.456-2.869-1.174-5.608-1.5-8.477-.587-1.174.326-1.956.848-1.37z" transform="translate(-328.169 -171.106)"/></g></g></g></g></svg>