<svg xmlns="http://www.w3.org/2000/svg" viewBox="2878 3517.284 68.5 68.003"><defs><style>.cls-1{fill:#fff}</style></defs><g id="analytics" transform="translate(2878.001 3515.427)"><g id="Group_42" data-name="Group 42" transform="translate(-.001 1.857)"><g id="Group_41" data-name="Group 41"><path id="Path_21" data-name="Path 21" class="cls-1" d="M65.488 8.67h-9.366a3.808 3.808 0 1 0-5.7-1.228L49.079 8.67H30.666a3.808 3.808 0 0 0-7.008 0H3.011A3.015 3.015 0 0 0 0 11.681v7.413a1 1 0 0 0 2.008 0v-7.413a1 1 0 0 1 1-1h20.38a3.784 3.784 0 0 0 .321 1.091l-8.466 7.669a3.807 3.807 0 1 0 1.334 1.5l8.435-7.641a3.8 3.8 0 0 0 4.9-.505l6.836 4.06a3.808 3.808 0 1 0 7.215-.778l5.9-5.4h15.63a1 1 0 0 1 1 1v24.8a1 1 0 1 0 2.008 0v-24.8a3.015 3.015 0 0 0-3.013-3.007zM13.167 24.425a1.8 1.8 0 1 1 1.8-1.8 1.8 1.8 0 0 1-1.8 1.8zm14-12.466a1.8 1.8 0 1 1 1.8-1.8 1.8 1.8 0 0 1-1.805 1.801zm13.313 7.453a1.8 1.8 0 1 1 1.8-1.8 1.8 1.8 0 0 1-1.805 1.8zm2.214-4.9a3.8 3.8 0 0 0-5.037.542l-6.789-4.024q.041-.174.066-.353h15.951zm11.1-7.052a1.8 1.8 0 1 1 1.8-1.8 1.8 1.8 0 0 1-1.807 1.805z" transform="translate(0 -1.857)"/></g></g><g id="Group_44" data-name="Group 44" transform="translate(-.001 15.019)"><g id="Group_43" data-name="Group 43"><path id="Path_22" data-name="Path 22" class="cls-1" d="M68.5 125.713a1 1 0 1 0-2.008 0v7.551H59.1v-32.027a1 1 0 0 0-1-1h-7.554a1 1 0 0 0-1 1v32.028h-3.758V119.9a1 1 0 0 0-1-1h-7.555a1 1 0 0 0-1 1v13.36h-3.758v-26.312a1 1 0 0 0-1-1h-7.554a1 1 0 0 0-1 1v13.867a1 1 0 1 0 2.008 0V116.2h5.544v17.063h-5.549v-8.435a1 1 0 0 0-2.008 0v8.435h-3.753V119.9a1 1 0 0 0-1-1h-7.55a1 1 0 0 0-1 1v13.36h-7.6v-24.937a1 1 0 1 0-2.008 0v33.222a3.015 3.015 0 0 0 3.011 3.011h21.979l-.572 4.988h-4.766a1 1 0 0 0-1 1v3.522a1 1 0 0 0 1 1h29.185a1 1 0 0 0 1-1v-3.522a1 1 0 0 0-1-1h-4.766l-.572-4.988h21.984a3.015 3.015 0 0 0 3.011-3.011v-15.832zM51.55 102.24h5.544v2.146H51.55zm0 4.153h5.544v2.089H51.55zm0 4.1h5.544v22.774H51.55zm-13.313 10.415h5.544v2.146h-5.544zm0 4.153h5.544v2.089h-5.544zm0 4.1h5.544v4.106h-5.544zM24.925 110.1v-2.146h5.544v2.146zm0 4.1v-2.1h5.544v2.089zm-13.312 6.714h5.543v2.146h-5.544zm0 4.153h5.543v2.089h-5.544zm0 4.1h5.543v4.106h-5.544zm36.225 22.394v1.515H20.66v-1.515zm-21.395-2.007l.572-4.987h14.467l.572 4.987zm39.045-6.995H3.01a1 1 0 0 1-1-1v-6.235h64.481v6.235a1 1 0 0 1-1.003.99z" transform="translate(.001 -100.233)"/></g></g></g></svg>