<svg xmlns="http://www.w3.org/2000/svg" viewBox="2452 2195 54.078 54.12"><defs><style>.cls-1{fill:#fff}</style></defs><g id="contract" transform="translate(2451.806 2195)"><g id="Group_12" data-name="Group 12" transform="translate(.194)"><g id="Group_11" data-name="Group 11"><path id="Path_3" data-name="Path 3" class="cls-1" d="M51.936 11.644l-1.312-.41a4.155 4.155 0 0 0-1.066-.164 3.527 3.527 0 0 0-3.28 2.378l-.738 2.214V13.94a1.012 1.012 0 0 0-.328-.656L31.764.246A.886.886 0 0 0 31.19 0H4.868a.775.775 0 0 0-.82.82v2.542H1.014a.775.775 0 0 0-.82.82V53.3a.775.775 0 0 0 .82.82h39.852a.775.775 0 0 0 .82-.82v-2.542h3.034a.775.775 0 0 0 .82-.82v-11.07l2.3-3.116.082-.246 6.15-19.6a3.27 3.27 0 0 0-2.136-4.262zM32.01 2.788L42.752 13.12H32.01zm8.036 49.692H1.834V5h2.214v44.938a.775.775 0 0 0 .82.82h35.178v1.722zm3.936-3.362H5.688V1.64H30.37v12.3a.775.775 0 0 0 .82.82h12.792v6.15l-3.854 12.136v.246l.164 10.414a.787.787 0 0 0 .574.738.778.778 0 0 0 .9-.328l2.214-2.952v7.954zm-2.132-7.954l-.164-6.806 4.1 1.312zm10.742-25.748l-5.9 18.778-4.756-1.558 5.9-18.7a1.783 1.783 0 0 1 2.214-1.148l1.312.41a1.733 1.733 0 0 1 1.23 2.218z" transform="translate(-.194)"/><path id="Path_4" data-name="Path 4" class="cls-1" d="M95.131 53.675h11.808a.775.775 0 0 0 .82-.82v-8.364a.775.775 0 0 0-.82-.82H95.131a.775.775 0 0 0-.82.82v8.364a.882.882 0 0 0 .82.82zm.82-8.364h10.168v6.724H95.951z" transform="translate(-84.061 -38.915)"/><path id="Path_5" data-name="Path 5" class="cls-1" d="M80.073 192.888H105a.82.82 0 1 0 0-1.64H80.073a.82.82 0 1 0 0 1.64z" transform="translate(-70.643 -170.42)"/><path id="Path_6" data-name="Path 6" class="cls-1" d="M80.073 247.853H105a.82.82 0 1 0 0-1.64H80.073a.82.82 0 1 0 0 1.64z" transform="translate(-70.643 -219.399)"/><path id="Path_7" data-name="Path 7" class="cls-1" d="M80.073 302.817H105a.82.82 0 1 0 0-1.64H80.073a.82.82 0 1 0 0 1.64z" transform="translate(-70.643 -268.377)"/><path id="Path_8" data-name="Path 8" class="cls-1" d="M105.739 356.962a.775.775 0 0 0-.82-.82H80.073a.82.82 0 1 0 0 1.64H105a.809.809 0 0 0 .739-.82z" transform="translate(-70.643 -317.356)"/><path id="Path_9" data-name="Path 9" class="cls-1" d="M239.278 411.106H226.9a.82.82 0 0 0 0 1.64h12.3a.775.775 0 0 0 .82-.82.757.757 0 0 0-.742-.82z" transform="translate(-201.476 -366.334)"/></g></g></g></svg>