<svg xmlns="http://www.w3.org/2000/svg" viewBox="2449 1972 59.986 54"><path d="M2508.972 1989.172a1 1 0 0 0 .013-.123 1.171 1.171 0 0 0 0-.145.852.852 0 0 0-.02-.123.988.988 0 0 0-.044-.14c-.009-.024-.011-.049-.022-.072s-.022-.03-.031-.047-.013-.035-.023-.052l-10-16a1.026 1.026 0 0 0-.161-.2.983.983 0 0 0-.3-.185c-.014-.006-.023-.018-.038-.024s-.023 0-.034-.005a.98.98 0 0 0-.312-.056h-38a.977.977 0 0 0-.31.056.306.306 0 0 0-.032.005c-.015.005-.024.017-.038.023a1 1 0 0 0-.287.175.177.177 0 0 1-.017.012 1.006 1.006 0 0 0-.163.2l-10 16c-.01.016-.014.035-.023.052s-.023.03-.031.047-.013.048-.023.072a.988.988 0 0 0-.044.14 1.033 1.033 0 0 0-.02.124.785.785 0 0 0-.012.143 1 1 0 0 0 .013.123.9.9 0 0 0 .037.142 1.013 1.013 0 0 0 .045.115c.009.018.012.038.022.056s.04.051.058.078a.608.608 0 0 0 .039.064l28.986 35.981.006.007v.007s.008.005.011.009a.982.982 0 0 0 .3.234c.03.016.058.03.089.043a.987.987 0 0 0 .383.087 1.01 1.01 0 0 0 .343-.061c.017-.006.028-.02.045-.027a.914.914 0 0 0 .137-.084.968.968 0 0 0 .206-.163c.014-.015.035-.022.048-.038l29-36c.016-.02.024-.044.039-.064a.875.875 0 0 0 .058-.078c.01-.018.013-.038.022-.056a.944.944 0 0 0 .045-.115 1.135 1.135 0 0 0 .04-.137zm-27.872-15.171h15.454l-4.86 13.045zm8.8 14h-21.8l10.893-13.413zm-23.67-.868l-4.8-13.132h15.462zm24.371 2.868l-11.783 31.607-11.549-31.607zm7.62-14.747l7.967 12.748h-12.716zm-38.465.013l4.653 12.734H2451.8zm5.384 14.734l10.839 29.664-23.896-29.664zm16.25 30.43l11.337-30.43h13.173z" fill="#fff"/></svg>