<svg xmlns="http://www.w3.org/2000/svg" viewBox="3394.961 3906 63.471 68"><defs><style>.cls-1{fill:#fff}</style></defs><g id="exam" transform="translate(3377.91 3906)"><g id="Group_62" data-name="Group 62" transform="translate(17.051)"><g id="Group_61" data-name="Group 61"><path id="Path_25" data-name="Path 25" class="cls-1" d="M316.252 308.333a1.134 1.134 0 0 0-1.133-1.133h-6.8a1.133 1.133 0 0 0 0 2.267h6.8a1.134 1.134 0 0 0 1.133-1.134z" transform="translate(-268.652 -266.4)"/><path id="Path_26" data-name="Path 26" class="cls-1" d="M326.518 49.467V43.8a1.133 1.133 0 0 0-2.267 0v5.667a5.673 5.673 0 0 0 5.667 5.667h10.2v21.533a1.133 1.133 0 0 0 2.267 0V54a1.134 1.134 0 0 0-1.133-1.133h-11.334a3.4 3.4 0 0 1-3.4-3.4z" transform="translate(-283.451 -37)"/><path id="Path_27" data-name="Path 27" class="cls-1" d="M300.317 204.8h-9.067a1.133 1.133 0 0 0 0 2.267h9.067a1.133 1.133 0 1 0 0-2.267z" transform="translate(-253.85 -177.6)"/><path id="Path_28" data-name="Path 28" class="cls-1" d="M213.852 205.933a1.134 1.134 0 0 0-1.133-1.133h-6.8a1.133 1.133 0 0 0 0 2.267h6.8a1.134 1.134 0 0 0 1.133-1.134z" transform="translate(-179.852 -177.6)"/><path id="Path_29" data-name="Path 29" class="cls-1" d="M205.917 256a1.133 1.133 0 1 0 0 2.267h2.267a1.133 1.133 0 1 0 0-2.267z" transform="translate(-179.851 -222)"/><path id="Path_30" data-name="Path 30" class="cls-1" d="M205.917 155.868h11.333a1.133 1.133 0 0 0 0-2.267h-11.333a1.133 1.133 0 0 0 0 2.267z" transform="translate(-179.851 -133.201)"/><path id="Path_31" data-name="Path 31" class="cls-1" d="M257.117 258.268h11.333a1.133 1.133 0 0 0 0-2.267h-11.333a1.133 1.133 0 1 0 0 2.267z" transform="translate(-224.251 -222.001)"/><path id="Path_32" data-name="Path 32" class="cls-1" d="M308.317 358.4a1.133 1.133 0 1 0 0 2.267h2.267a1.133 1.133 0 1 0 0-2.267z" transform="translate(-268.651 -310.8)"/><path id="Path_33" data-name="Path 33" class="cls-1" d="M214.984 307.2h-9.067a1.133 1.133 0 0 0 0 2.267h9.067a1.133 1.133 0 0 0 0-2.267z" transform="translate(-179.851 -266.4)"/><path id="Path_34" data-name="Path 34" class="cls-1" d="M214.984 358.4h-9.067a1.133 1.133 0 1 0 0 2.267h9.067a1.133 1.133 0 1 0 0-2.267z" transform="translate(-179.851 -310.8)"/><path id="Path_35" data-name="Path 35" class="cls-1" d="M330.767 328.175l-2.267-2.267a4.258 4.258 0 0 0-6.136 0l-14.849 14.849a1.135 1.135 0 0 0-.332.8v6.8a1.134 1.134 0 0 0 1.133 1.133h6.8a1.135 1.135 0 0 0 .8-.332l14.849-14.849a4.153 4.153 0 0 0 .002-6.134zm-9.868 2.4l1.8 1.8-9.846 9.846-1.8-1.8zm-11.449 16.646v-5.2l5.2 5.2zm6.8-1.6l-1.8-1.8 9.846-9.846 1.8 1.8zm12.914-12.914l-1.465 1.465-5.2-5.2 1.465-1.465a1.933 1.933 0 0 1 2.931 0l2.267 2.267a1.905 1.905 0 0 1 .003 2.934z" transform="translate(-268.651 -281.492)"/><path id="Path_36" data-name="Path 36" class="cls-1" d="M52.184 65.733H22.718a3.4 3.4 0 0 1-3.4-3.4V5.667a3.4 3.4 0 0 1 3.4-3.4h35.8l11 11a1.133 1.133 0 0 0 1.6-1.6L59.785.332a1.131 1.131 0 0 0-.8-.332H22.718a5.673 5.673 0 0 0-5.667 5.667v56.666A5.673 5.673 0 0 0 22.718 68h29.466a1.133 1.133 0 0 0 0-2.267z" transform="translate(-17.051)"/><path id="Path_37" data-name="Path 37" class="cls-1" d="M214.984 409.6h-9.067a1.133 1.133 0 1 0 0 2.267h9.067a1.133 1.133 0 1 0 0-2.267z" transform="translate(-179.851 -355.2)"/><path id="Path_38" data-name="Path 38" class="cls-1" d="M111.452 154.733a1.134 1.134 0 0 0-1.133-1.133h-6.8a1.134 1.134 0 0 0-1.133 1.133v6.8a1.134 1.134 0 0 0 1.133 1.133h6.8a1.134 1.134 0 0 0 1.133-1.133zm-2.267 5.667h-4.533v-4.533h4.533z" transform="translate(-91.052 -133.2)"/><path id="Path_39" data-name="Path 39" class="cls-1" d="M103.517 367.468h6.8a1.134 1.134 0 0 0 1.133-1.133v-6.8a1.134 1.134 0 0 0-1.133-1.133h-6.8a1.134 1.134 0 0 0-1.133 1.133v6.8a1.134 1.134 0 0 0 1.133 1.133zm1.133-6.8h4.533v4.532h-4.533z" transform="translate(-91.051 -310.801)"/><path id="Path_40" data-name="Path 40" class="cls-1" d="M104.981 264.731a1.134 1.134 0 0 0 .8.332.914.914 0 0 0 .112-.006 1.131 1.131 0 0 0 .831-.5l4.533-6.8a1.133 1.133 0 1 0-1.886-1.258l-3.766 5.65-1.29-1.289a1.133 1.133 0 1 0-1.6 1.6z" transform="translate(-91.049 -221.996)"/></g></g></g></svg>