<svg xmlns="http://www.w3.org/2000/svg" viewBox="3282.783 3515.783 68.22 68.22"><defs><style>.cls-1{fill:#fff}</style></defs><g id="flow-chart" transform="translate(3282.783 3515.783)"><g id="Group_46" data-name="Group 46" transform="translate(6.822 9.096)"><g id="Group_45" data-name="Group 45"><path id="Path_23" data-name="Path 23" class="cls-1" d="M101.439 91.288H87.795a1.137 1.137 0 0 0-1.137 1.137V94.7h-3.1l-7.129-4.07v-3.89h5.681a1.137 1.137 0 0 0 1.137-1.14v-6.819a1.137 1.137 0 0 0-1.137-1.137h-5.685V73.1H78.7a4.548 4.548 0 0 0 0-9.1h-6.823a4.548 4.548 0 0 0 0 9.1h2.274v4.548h-5.685a1.137 1.137 0 0 0-1.137 1.137v2.274h-3.411v-2.278a1.137 1.137 0 0 0-1.137-1.137H49.137A1.137 1.137 0 0 0 48 78.781V85.6a1.137 1.137 0 0 0 .512.944l.4.273A7.378 7.378 0 0 0 53 88.048a7.266 7.266 0 0 0 3.286-.773 5.105 5.105 0 0 1 2.274-.534h4.218a1.137 1.137 0 0 0 1.14-1.141v-2.271h3.411V85.6a1.137 1.137 0 0 0 1.137 1.137h5.685v3.889l-7.391 4.221a1.137 1.137 0 0 0 0 1.978l7.391 4.218v6.163h-2.274a4.548 4.548 0 0 0 0 9.1H78.7a4.548 4.548 0 1 0 0-9.1h-2.275v-2.274h18.192a1.137 1.137 0 0 0 1.137-1.137v-3.411h5.685a1.137 1.137 0 0 0 1.137-1.137v-6.822a1.137 1.137 0 0 0-1.137-1.137zm-39.795-6.822h-3.081a7.46 7.46 0 0 0-3.286.773 5.094 5.094 0 0 1-5-.25v-5.071h11.37zm10.233-13.644a2.274 2.274 0 0 1 0-4.548H78.7a2.274 2.274 0 0 1 0 4.548zM69.6 84.466v-4.548h11.37v4.548zm9.1 25.014a2.274 2.274 0 0 1 0 4.548h-6.823a2.274 2.274 0 0 1 0-4.548zm-3.411-10.4L69.6 95.836l5.685-3.24 5.685 3.24zm18.192 3.582H76.425v-1.615l7.129-4.07h3.1v2.274a1.137 1.137 0 0 0 1.137 1.137h5.689zm6.819-4.552H88.932v-4.548H100.3z" transform="translate(-48 -64)"/></g></g><g id="Group_48" data-name="Group 48" transform="translate(6.822 9.096)"><g id="Group_47" data-name="Group 47"><path id="Rectangle_18" data-name="Rectangle 18" class="cls-1" d="M0 0h12.507v2.274H0z"/></g></g><g id="Group_50" data-name="Group 50" transform="translate(6.822 13.644)"><g id="Group_49" data-name="Group 49"><path id="Rectangle_19" data-name="Rectangle 19" class="cls-1" d="M0 0h9.096v2.274H0z"/></g></g><g id="Group_52" data-name="Group 52"><g id="Group_51" data-name="Group 51"><path id="Path_24" data-name="Path 24" class="cls-1" d="M67.083 6.822a1.137 1.137 0 0 0 1.137-1.137V1.137A1.137 1.137 0 0 0 67.083 0H1.137A1.137 1.137 0 0 0 0 1.137v4.548a1.137 1.137 0 0 0 1.137 1.137h1.137v59.124H0v2.274h68.22v-2.274h-2.274V6.822zm-3.411 59.124H4.548V6.822h59.124zm-61.4-61.4V2.274h63.674v2.274z"/></g></g><g id="Group_54" data-name="Group 54" transform="translate(45.48 61.398)"><g id="Group_53" data-name="Group 53"><path id="Rectangle_20" data-name="Rectangle 20" class="cls-1" d="M0 0h2.274v2.274H0z"/></g></g><g id="Group_56" data-name="Group 56" transform="translate(50.028 61.398)"><g id="Group_55" data-name="Group 55"><path id="Rectangle_21" data-name="Rectangle 21" class="cls-1" d="M0 0h2.274v2.274H0z"/></g></g><g id="Group_58" data-name="Group 58" transform="translate(54.576 61.398)"><g id="Group_57" data-name="Group 57"><path id="Rectangle_22" data-name="Rectangle 22" class="cls-1" d="M0 0h2.274v2.274H0z"/></g></g><g id="Group_60" data-name="Group 60" transform="translate(59.124 61.398)"><g id="Group_59" data-name="Group 59"><path id="Rectangle_23" data-name="Rectangle 23" class="cls-1" d="M0 0h2.274v2.274H0z"/></g></g></g></svg>