<svg xmlns="http://www.w3.org/2000/svg" viewBox="3035 2195 64.023 54"><defs><style>.cls-1{fill:#fff}</style></defs><g id="setting" transform="translate(3035 2154.922)"><g id="Group_18" data-name="Group 18" transform="translate(0 40.078)"><g id="Group_17" data-name="Group 17"><path id="Path_12" data-name="Path 12" class="cls-1" d="M63.083 79.586a.94.94 0 0 0 .94-.94V41.018a.94.94 0 0 0-.94-.94H.94a.94.94 0 0 0-.94.94v52.12a.94.94 0 0 0 .94.94h62.144a.94.94 0 0 0 .94-.94V82.99a.94.94 0 0 0-1.879 0v9.21H1.879V51.981h60.265v26.665a.94.94 0 0 0 .939.94zM1.879 50.1v-8.143h60.265V50.1z" transform="translate(0 -40.078)"/></g></g><g id="Group_20" data-name="Group 20" transform="translate(57.132 45.09)"><g id="Group_19" data-name="Group 19"><ellipse id="Ellipse_1" data-name="Ellipse 1" class="cls-1" cx=".94" cy=".94" rx=".94" ry=".94"/></g></g><g id="Group_22" data-name="Group 22" transform="translate(51.056 45.09)"><g id="Group_21" data-name="Group 21"><ellipse id="Ellipse_2" data-name="Ellipse 2" class="cls-1" cx=".94" cy=".94" rx=".94" ry=".94"/></g></g><g id="Group_24" data-name="Group 24" transform="translate(44.979 45.09)"><g id="Group_23" data-name="Group 23"><ellipse id="Ellipse_3" data-name="Ellipse 3" class="cls-1" cx=".94" cy=".94" rx=".94" ry=".94"/></g></g><g id="Group_26" data-name="Group 26" transform="translate(21.049 60.124)"><g id="Group_25" data-name="Group 25"><path id="Path_13" data-name="Path 13" class="cls-1" d="M189.315 208.411h-2.631q-.04-.1-.083-.2l1.861-1.86a.949.949 0 0 0 0-1.329l-2.835-2.835a.949.949 0 0 0-1.329 0l-1.86 1.861a8.461 8.461 0 0 0-.2-.083v-2.631a.94.94 0 0 0-.94-.94h-4.009a.94.94 0 0 0-.94.94v2.631q-.1.04-.2.083l-1.861-1.861a.949.949 0 0 0-1.329 0l-2.835 2.835a.94.94 0 0 0 0 1.329l1.861 1.86q-.043.1-.083.2h-2.631a.94.94 0 0 0-.94.94v4.009a.94.94 0 0 0 .94.94h2.629q.04.1.083.2l-1.861 1.86a.94.94 0 0 0 0 1.329l2.835 2.835a.949.949 0 0 0 1.329 0l1.861-1.861q.1.043.2.083v2.631a.94.94 0 0 0 .94.94h4.013a.94.94 0 0 0 .94-.94v-2.631l.2-.083 1.86 1.861a.949.949 0 0 0 1.329 0l2.835-2.835a.949.949 0 0 0 0-1.329l-1.864-1.86c.029-.067.056-.133.083-.2h2.631a.94.94 0 0 0 .94-.94v-4.01a.94.94 0 0 0-.939-.939zm-.94 4.009h-2.359a.94.94 0 0 0-.9.671 6.044 6.044 0 0 1-.477 1.154.94.94 0 0 0 .162 1.112l1.668 1.668-1.506 1.506-1.668-1.668a.94.94 0 0 0-1.112-.162 6.043 6.043 0 0 1-1.154.477.94.94 0 0 0-.671.9v2.36h-2.13v-2.36a.94.94 0 0 0-.671-.9 6.046 6.046 0 0 1-1.154-.477.939.939 0 0 0-1.112.162l-1.668 1.668-1.506-1.506 1.668-1.668a.94.94 0 0 0 .162-1.112 6.041 6.041 0 0 1-.477-1.154.94.94 0 0 0-.9-.672h-2.36v-2.13h2.36a.94.94 0 0 0 .9-.671 6.053 6.053 0 0 1 .477-1.154.94.94 0 0 0-.162-1.112l-1.668-1.668 1.506-1.506 1.668 1.668a.939.939 0 0 0 1.112.162 6.051 6.051 0 0 1 1.154-.477.94.94 0 0 0 .671-.9v-2.36h2.13v2.359a.94.94 0 0 0 .671.9 6.046 6.046 0 0 1 1.154.477.94.94 0 0 0 1.112-.162l1.668-1.668 1.506 1.506-1.668 1.668a.939.939 0 0 0-.162 1.112 6.045 6.045 0 0 1 .477 1.154.94.94 0 0 0 .9.671h2.36z" transform="translate(-168.329 -200.392)"/></g></g><g id="Group_28" data-name="Group 28" transform="translate(28.065 67.141)"><g id="Group_27" data-name="Group 27"><path id="Path_14" data-name="Path 14" class="cls-1" d="M228.385 256.5a3.947 3.947 0 1 0 3.947 3.947 3.951 3.951 0 0 0-3.947-3.947zm0 6.014a2.067 2.067 0 1 1 2.067-2.067 2.07 2.07 0 0 1-2.067 2.068z" transform="translate(-224.438 -256.501)"/></g></g><g id="Group_30" data-name="Group 30" transform="translate(53.437 59.122)"><g id="Group_29" data-name="Group 29"><path id="Path_15" data-name="Path 15" class="cls-1" d="M428.949 192.652a.94.94 0 0 0-1.329 1.329 15.114 15.114 0 0 1 0 21.351.947.947 0 0 0 .664 1.6.937.937 0 0 0 .664-.275 17 17 0 0 0 .001-24.005z" transform="translate(-427.345 -192.376)"/></g></g><g id="Group_32" data-name="Group 32" transform="translate(44.932 67.627)"><g id="Group_31" data-name="Group 31"><path id="Path_16" data-name="Path 16" class="cls-1" d="M360.932 260.665a.94.94 0 0 0-1.329 1.329 3.069 3.069 0 0 1 0 4.341.94.94 0 0 0 1.329 1.329 4.949 4.949 0 0 0 0-7z" transform="translate(-359.328 -260.389)"/></g></g><g id="Group_34" data-name="Group 34" transform="translate(49.185 63.375)"><g id="Group_33" data-name="Group 33"><path id="Path_17" data-name="Path 17" class="cls-1" d="M394.94 226.658a.94.94 0 0 0-1.329 1.329 9.083 9.083 0 0 1 0 12.846.94.94 0 0 0 1.329 1.329 10.963 10.963 0 0 0 0-15.5z" transform="translate(-393.336 -226.383)"/></g></g><g id="Group_36" data-name="Group 36" transform="translate(4.017 59.122)"><g id="Group_35" data-name="Group 35"><path id="Path_18" data-name="Path 18" class="cls-1" d="M38.42 193.981a.94.94 0 1 0-1.329-1.329 17 17 0 0 0 0 24.009.94.94 0 1 0 1.329-1.329 15.115 15.115 0 0 1 0-21.351z" transform="translate(-32.126 -192.376)"/></g></g><g id="Group_38" data-name="Group 38" transform="translate(16.037 67.627)"><g id="Group_37" data-name="Group 37"><path id="Path_19" data-name="Path 19" class="cls-1" d="M130.13 264.165a3.05 3.05 0 0 1 .9-2.171.94.94 0 1 0-1.329-1.329 4.949 4.949 0 0 0 0 7 .94.94 0 1 0 1.329-1.329 3.05 3.05 0 0 1-.9-2.171z" transform="translate(-128.251 -260.39)"/></g></g><g id="Group_40" data-name="Group 40" transform="translate(10.023 63.375)"><g id="Group_39" data-name="Group 39"><path id="Path_20" data-name="Path 20" class="cls-1" d="M82.036 234.411a9.024 9.024 0 0 1 2.661-6.423.94.94 0 0 0-1.329-1.329 10.963 10.963 0 0 0 0 15.5.94.94 0 1 0 1.329-1.329 9.024 9.024 0 0 1-2.661-6.419z" transform="translate(-80.157 -226.384)"/></g></g></g></svg>