<svg xmlns="http://www.w3.org/2000/svg" viewBox="3035 1967.104 65 64.792"><defs><style>.cls-1{fill:#fff}</style></defs><g id="sketch" transform="translate(3035 1966.284)"><g id="Group_14" data-name="Group 14" transform="translate(45.769 46.514)"><g id="Group_13" data-name="Group 13"><path id="Path_10" data-name="Path 10" class="cls-1" d="M372.262 360.822a.954.954 0 0 0-1.04.207L360.8 371.455a.954.954 0 0 0 .675 1.629H371.9a.954.954 0 0 0 .954-.954V361.7a.954.954 0 0 0-.592-.878zm-8.488 10.354l7.169-7.169v7.169z" transform="translate(-360.517 -360.749)"/></g></g><g id="Group_16" data-name="Group 16" transform="translate(0 .82)"><g id="Group_15" data-name="Group 15"><path id="Path_11" data-name="Path 11" class="cls-1" d="M64.411 31.295a.954.954 0 0 0-1.04.207l-2.857 2.857V14.931a.954.954 0 0 0-.954-.954h-7.33l2.661-2.661 2.564-2.564a2.91 2.91 0 0 0 0-4.114l-2.964-2.966a2.91 2.91 0 0 0-4.114 0l-2.565 2.565-3.1 3.1-6.64 6.64H8.458V4.538a.954.954 0 0 0-.958-.954 7.512 7.512 0 0 0-7.5 7.5V51.61a.956.956 0 0 0 .023.205 7.226 7.226 0 0 0 7.2 6.677H36.38l-5.49 5.491a.954.954 0 0 0 .675 1.629h32.481a.954.954 0 0 0 .954-.954V32.176a.954.954 0 0 0-.589-.881zM51.726 3.021a1 1 0 0 1 1.415 0l2.965 2.965a1 1 0 0 1 0 1.416l-1.89 1.891-4.38-4.381zm-3.24 3.24l4.381 4.38-1.751 1.751-4.38-4.38zM63.092 42.9h-1.76a.954.954 0 1 0 0 1.908h1.76v2.872h-1.76a.954.954 0 0 0 0 1.908h1.76v2.875h-1.76a.954.954 0 1 0 0 1.908h1.76v2.875h-1.76a.954.954 0 0 0 0 1.908h1.76V63.7H33.868l9.632-9.633a.954.954 0 0 0-1.349-1.349l-3.866 3.866H7.227a5.289 5.289 0 0 1-5.315-5.147q.008-.272.042-.539.016-.127.038-.252L2 50.615q.02-.112.045-.223l.014-.062q.022-.094.047-.186l.028-.1c.014-.048.028-.1.044-.145s.032-.1.048-.143l.035-.1c.023-.062.048-.124.073-.186l.022-.053.1-.226v-.01a5.616 5.616 0 0 1 3.9-3.053h.014c.079-.016.159-.03.239-.043l.04-.007c.072-.011.146-.02.219-.028l.062-.007c.071-.007.142-.012.213-.016h.068q.14-.007.282-.007a.954.954 0 0 0 .954-.954v-6.923a.954.954 0 0 0-1.908 0v6.024a7.452 7.452 0 0 0-4.275 2.073 7.385 7.385 0 0 0-.356.375V11.088a5.605 5.605 0 0 1 4.641-5.514v28.753a.954.954 0 1 0 1.908 0V15.885h27.707l-5.274 5.274a.954.954 0 0 0 1.349 1.349l6.9-6.9 6.244-6.244 4.38 4.381-.514.514-19.234 19.235-4.38-4.38 3.792-3.792a.954.954 0 1 0-1.349-1.349l-4.468 4.466a.958.958 0 0 0-.067.075l-.02.027c-.013.018-.027.036-.039.055l-.02.033-.03.054-.017.036-.024.057-.008.02-1.859 5.265-1.267 3.59a.964.964 0 0 0-.038.145h-3.172a.954.954 0 0 0 0 1.908H43.47a.954.954 0 0 0 0-1.908H24.514l5.818-2.054.014-.006c.023-.008.045-.018.067-.028l.026-.012c.023-.011.045-.024.067-.037l.021-.013c.023-.015.045-.031.067-.048l.017-.012a.958.958 0 0 0 .077-.069l19.634-19.632h8.284v20.382L44.959 49.914a.954.954 0 0 0 0 1.349.974.974 0 0 0 .072.066.953.953 0 0 0 1.277-.066l16.784-16.784zM28.27 34.447l-2.733.965-1.821-1.821.965-2.733z" transform="translate(0 -.82)"/></g></g></g></svg>